<?xml version="1.0" standalone="no"?>
<!DOCTYPE svg PUBLIC "-//W3C//DTD SVG 20010904//EN"
 "http://www.w3.org/TR/2001/REC-SVG-20010904/DTD/svg10.dtd">
<svg version="1.0" xmlns="http://www.w3.org/2000/svg"
 width="619.000000pt" height="960.000000pt" viewBox="0 0 619.000000 960.000000"
 preserveAspectRatio="xMidYMid meet">
<metadata>
Created by potrace 1.16, written by Peter Selinger 2001-2019
</metadata>
<g transform="translate(0.000000,960.000000) scale(0.100000,-0.100000)"
fill="#000000" stroke="none">
<path d="M3926 8558 c3 -13 13 -39 21 -58 14 -34 34 -263 25 -287 -2 -7 1 -13
8 -13 15 0 9 -141 -14 -335 -33 -280 -65 -579 -76 -705 -6 -74 -17 -175 -25
-225 -8 -49 -24 -155 -35 -235 -12 -80 -37 -228 -56 -330 -19 -102 -41 -227
-49 -279 -13 -80 -87 -385 -194 -796 -16 -60 -47 -191 -71 -290 -23 -99 -66
-254 -95 -345 -29 -91 -64 -205 -79 -255 -15 -49 -34 -103 -41 -120 -13 -28
-34 -81 -80 -208 -20 -54 -26 -52 -43 17 -7 27 -19 54 -27 60 -24 19 -76 175
-96 291 -33 189 -37 205 -55 222 -16 17 -17 16 -12 -10 3 -15 2 -30 -2 -32 -9
-6 -43 98 -89 270 -16 61 -37 135 -45 165 -16 59 -116 456 -146 580 -10 41
-25 102 -35 135 -43 154 -102 424 -124 579 -5 33 -21 124 -35 201 -14 77 -32
177 -40 223 -14 76 -52 387 -77 632 -6 58 -19 166 -29 240 -28 199 -61 520
-58 555 1 16 -1 62 -5 100 -7 65 10 216 28 245 3 6 2 10 -4 10 -6 0 -18 -14
-27 -31 -43 -84 -216 -222 -377 -301 -108 -53 -469 -194 -672 -263 -93 -32
-178 -62 -189 -67 -10 -6 -59 -21 -108 -34 -49 -13 -112 -35 -141 -48 -34 -16
-62 -23 -80 -19 -39 8 -105 -40 -129 -93 -16 -37 -36 -114 -83 -324 -39 -172
-86 -539 -160 -1245 -13 -132 -29 -283 -35 -335 -48 -451 -57 -561 -135 -1700
-31 -447 -62 -1360 -70 -2035 -6 -464 6 -1221 21 -1367 6 -56 6 -56 54 -77 62
-27 67 -26 74 3 3 14 14 27 24 30 48 15 212 27 427 33 277 7 269 10 267 -83 0
-31 4 -52 9 -49 5 4 9 20 9 36 0 23 7 34 30 47 16 9 30 20 30 25 0 4 5 7 10 7
7 0 8 -30 4 -90 -8 -106 -8 -107 100 -178 165 -109 506 -175 911 -176 179 -1
233 2 290 17 187 47 342 164 474 359 76 112 72 109 138 103 45 -4 53 -3 34 5
-23 10 -23 12 -19 123 2 61 9 120 14 130 8 13 9 2 6 -41 -3 -39 0 -62 7 -67 9
-5 11 20 7 102 -6 102 4 189 32 288 8 28 9 28 14 7 14 -52 50 -8 69 83 6 33
14 82 18 109 6 49 6 49 49 -105 24 -85 77 -242 117 -349 40 -107 80 -220 90
-250 18 -57 109 -252 144 -306 28 -45 155 -137 231 -167 112 -43 172 -52 370
-51 436 1 917 97 1049 210 49 42 63 83 60 174 -1 38 0 73 3 76 4 3 27 2 52 -1
43 -7 46 -9 47 -39 l1 -31 10 30 c6 17 18 35 26 41 33 24 618 1 689 -26 14 -6
25 -5 28 0 4 6 15 10 26 10 15 0 19 7 19 33 0 17 7 160 16 317 33 615 29 2135
-7 2785 -19 360 -95 1371 -104 1405 -5 17 -47 473 -70 755 -66 811 -132 1247
-247 1618 -64 210 -89 247 -166 247 -15 0 -33 5 -38 10 -10 10 -39 20 -344
123 -91 30 -248 85 -350 122 -102 37 -210 76 -240 87 -93 33 -310 144 -410
210 -52 34 -127 95 -166 135 -40 40 -75 73 -79 73 -3 0 -3 -10 1 -22z m1044
-2327 c0 -5 -8 -12 -17 -15 -151 -43 -733 -113 -733 -88 0 14 30 19 230 37
143 14 323 40 440 65 51 11 80 11 80 1z m-3749 -1368 c67 -280 88 -560 71
-928 -7 -138 -18 -342 -26 -455 -8 -113 -14 -214 -15 -225 -4 -66 -9 -105 -19
-141 -16 -56 -35 -335 -27 -404 3 -30 -1 -122 -10 -205 -22 -203 -41 -418 -60
-675 -9 -118 -25 -280 -36 -360 -35 -261 -49 -384 -49 -432 0 -26 -4 -49 -9
-52 -12 -8 -17 38 -32 297 -21 380 10 1569 57 2112 8 99 17 187 19 195 6 20
32 385 45 625 16 297 40 750 40 771 1 37 29 -32 51 -123z m3888 59 c47 -297
80 -842 102 -1732 10 -370 10 -622 1 -1140 -7 -366 -13 -759 -13 -875 -1 -135
-4 -199 -10 -180 -4 17 -25 199 -44 405 -20 206 -41 395 -46 420 -5 25 -22
233 -39 464 -24 328 -28 422 -18 433 9 11 9 60 -1 221 -11 192 -17 265 -41
538 -5 55 -12 249 -16 430 -7 358 4 606 35 809 21 137 59 287 71 280 5 -3 13
-35 19 -73z"/>
<path d="M2562 8293 c-6 -21 -16 -77 -22 -124 -19 -140 27 -497 67 -531 36
-29 272 67 362 148 29 26 61 65 72 86 16 32 25 39 42 35 12 -3 44 -9 70 -12
42 -7 50 -12 67 -44 19 -37 93 -113 145 -148 55 -38 244 -133 263 -133 15 0
21 10 26 46 3 25 20 87 37 137 l31 92 -6 170 c-5 150 -15 248 -27 260 -8 7
-205 -52 -263 -79 -32 -16 -77 -34 -99 -42 -22 -8 -65 -28 -95 -44 -44 -24
-68 -30 -114 -30 -52 0 -62 4 -95 33 -90 80 -246 161 -385 201 -31 9 -58 16
-60 16 -3 0 -10 -17 -16 -37z"/>
</g>
</svg>
