<?xml version="1.0" standalone="no"?>
<!DOCTYPE svg PUBLIC "-//W3C//DTD SVG 20010904//EN"
 "http://www.w3.org/TR/2001/REC-SVG-20010904/DTD/svg10.dtd">
<svg version="1.0" xmlns="http://www.w3.org/2000/svg"
 width="763.000000pt" height="960.000000pt" viewBox="0 0 763.000000 960.000000"
 preserveAspectRatio="xMidYMid meet">

<g transform="translate(0.000000,960.000000) scale(0.100000,-0.100000)"
fill="#000000" stroke="none">
<path d="M0 9579 l0 -24 250 0 c228 0 289 -5 228 -20 -28 -7 -54 -7 -290 -1
l-188 5 0 -108 0 -107 403 2 c1760 12 2179 16 2297 19 74 3 475 7 890 10 841
5 772 -1 784 77 8 47 1 62 -13 27 l-10 -24 0 24 c-1 16 -5 21 -16 17 -8 -3
-15 -2 -15 2 0 14 -61 7 -70 -8 -8 -13 -10 -12 -10 3 0 22 -46 23 -58 1 -11
-19 -103 -24 -125 -6 -7 6 -37 10 -67 8 -30 -1 -60 1 -65 5 -6 4 -33 3 -60 -2
-55 -11 -92 -14 -275 -23 -69 -4 -149 -11 -179 -16 -30 -6 -77 -10 -104 -10
-41 0 -48 3 -45 18 3 12 12 16 35 15 18 -2 35 2 38 7 3 6 11 10 16 10 6 0 8
-4 5 -9 -3 -4 15 -3 39 2 25 6 45 14 45 19 0 4 19 8 43 8 27 0 37 3 28 9 -20
13 -2 18 57 16 28 -1 52 2 52 6 0 4 12 12 28 18 23 9 19 10 -28 7 -81 -6 -238
-32 -295 -49 -54 -17 -167 -42 -228 -52 -21 -3 -45 -9 -53 -12 -10 -3 -12 0
-9 10 7 16 47 37 73 37 9 0 30 7 47 16 17 8 40 12 53 9 30 -7 74 29 65 53 -5
10 -2 13 6 8 7 -5 10 -14 7 -22 -4 -10 2 -14 19 -14 16 0 25 6 25 15 0 17 27
20 32 4 3 -9 9 -9 25 0 12 6 33 11 47 11 14 0 26 4 26 8 0 4 30 6 68 4 37 -2
78 1 92 6 17 7 -49 10 -218 10 -191 0 -248 -3 -270 -14 -15 -7 -35 -14 -45
-14 -10 0 -34 -8 -55 -19 -50 -25 -135 -49 -202 -56 -107 -13 -365 -16 -354
-5 5 5 46 11 90 11 144 2 409 50 439 80 l20 20 -130 -5 c-147 -5 -175 -8 -175
-17 0 -6 -41 -14 -130 -26 -34 -5 -63 -5 -97 -2 -10 1 -67 -1 -128 -5 -75 -5
-105 -4 -94 3 8 6 62 13 120 16 131 7 189 15 189 26 0 5 -191 9 -450 8 -302
-1 -447 -5 -443 -12 4 -7 -2 -7 -18 -2 -38 14 -447 18 -429 4 11 -8 7 -9 -20
-4 -19 4 -98 9 -175 10 -129 3 -137 3 -100 -10 44 -15 40 -18 -20 -15 -22 1
-41 6 -43 10 -2 5 -21 3 -42 -5 -21 -7 -40 -12 -42 -10 -9 10 -128 31 -138 25
-7 -4 -13 -19 -13 -34 -2 -24 -6 -26 -44 -26 -55 0 -64 16 -12 23 48 6 57 13
41 29 -12 12 -83 15 -182 8 -25 -1 -136 1 -247 5 l-203 8 0 -24z m1775 -19
c-3 -5 -12 -7 -20 -3 -21 7 -19 13 6 13 11 0 18 -4 14 -10z m385 -7 c29 -6 21
-8 -45 -13 -44 -3 -90 -2 -103 2 -13 4 -66 8 -118 8 -52 0 -94 4 -94 9 0 11
301 5 360 -6z m-833 1 c-3 -3 -12 -4 -19 -1 -8 3 -5 6 6 6 11 1 17 -2 13 -5z
m-476 -28 c23 -18 22 -18 -68 -13 -95 6 -118 12 -108 28 11 16 150 4 176 -15z
m582 -3 c-7 -2 -21 -2 -30 0 -10 3 -4 5 12 5 17 0 24 -2 18 -5z m-468 -13 c-8
-13 -35 -13 -55 0 -11 7 -5 10 23 10 23 0 36 -4 32 -10z m712 4 c-3 -3 -12 -4
-19 -1 -8 3 -5 6 6 6 11 1 17 -2 13 -5z m358 -14 l30 -1 -25 -10 c-24 -10
-223 -11 -287 -2 -18 3 -33 10 -33 15 0 6 52 8 143 4 78 -3 156 -6 172 -6z
m-390 -22 c7 -7 -6 -9 -44 -5 -30 4 -59 12 -65 18 -8 9 3 10 44 5 30 -4 60
-12 65 -18z m627 10 c-12 -12 -146 -21 -166 -10 -18 10 16 17 96 20 68 3 81 1
70 -10z m168 3 c0 -13 -19 -18 -52 -13 -42 6 -34 22 12 22 22 0 40 -4 40 -9z
m-1801 -17 c15 -15 -38 -19 -246 -17 -136 1 -239 5 -245 11 -6 6 29 9 99 7 59
-2 133 0 163 4 53 7 220 4 229 -5z m126 -4 c12 0 26 5 33 12 9 9 16 8 29 -4
10 -9 27 -18 38 -21 11 -3 -27 -4 -84 -4 -70 1 -106 6 -108 14 -5 13 47 23 62
11 5 -4 18 -8 30 -8z m702 -6 c-3 -3 -12 -4 -19 -1 -8 3 -5 6 6 6 11 1 17 -2
13 -5z m281 -16 c3 -15 -1 -16 -19 -9 -32 11 -38 34 -8 29 13 -1 25 -11 27
-20z m2557 12 c3 -5 1 -10 -4 -10 -6 0 -11 5 -11 10 0 6 2 10 4 10 3 0 8 -4
11 -10z m-3248 -6 c32 -9 18 -24 -22 -24 -46 0 -71 10 -53 21 15 10 44 11 75
3z m516 -11 c-7 -2 -19 -2 -25 0 -7 3 -2 5 12 5 14 0 19 -2 13 -5z m347 -5 c0
-10 -74 -9 -125 2 -33 7 -26 8 43 7 45 -1 82 -5 82 -9z m57 -4 c-3 -3 -12 -4
-19 -1 -8 3 -5 6 6 6 11 1 17 -2 13 -5z m1003 -4 c-14 -4 -61 -8 -105 -8 -68
1 -73 2 -35 8 66 10 172 10 140 0z m-207 -7 c-7 -2 -19 -2 -25 0 -7 3 -2 5 12
5 14 0 19 -2 13 -5z m-585 -10 c-21 -2 -57 -2 -80 0 -24 2 -7 4 37 4 44 0 63
-2 43 -4z m415 0 c-7 -2 -21 -2 -30 0 -10 3 -4 5 12 5 17 0 24 -2 18 -5z"/>
<path d="M2618 9593 c12 -2 30 -2 40 0 9 3 -1 5 -23 4 -22 0 -30 -2 -17 -4z"/>
<path d="M4337 9594 c-10 -10 -79 -16 -198 -17 -105 -2 -106 -2 -79 -18 18
-12 55 -18 108 -21 46 -2 80 -7 79 -13 -1 -5 14 -11 33 -13 19 -2 37 -7 40
-12 3 -5 24 -4 46 2 30 8 44 19 53 40 7 16 11 32 8 35 -3 3 -13 -10 -22 -28
l-15 -34 6 38 c5 36 4 38 -17 32 -12 -4 -24 -2 -28 4 -4 6 -10 8 -14 5z"/>
<path d="M4748 9593 c6 -2 18 -2 25 0 6 3 1 5 -13 5 -14 0 -19 -2 -12 -5z"/>
<path d="M4810 9585 c-10 -13 -3 -19 51 -43 124 -55 199 -85 202 -81 2 2 17
33 34 69 l30 65 -94 3 c-62 2 -100 -1 -109 -9 -10 -8 -14 -8 -14 0 0 17 -85
14 -100 -4z"/>
<path d="M5132 9535 c-35 -71 -39 -90 -19 -98 6 -2 98 -40 202 -82 369 -150
357 -146 371 -134 7 6 16 20 20 32 4 12 21 53 39 92 18 38 39 86 48 105 8 19
27 61 41 93 l26 57 -40 0 c-34 0 -40 -3 -40 -21 0 -25 -18 -61 -29 -55 -4 3
-45 -4 -92 -15 -46 -10 -114 -22 -151 -25 -57 -5 -68 -3 -68 9 0 9 5 19 10 22
8 5 7 11 -1 21 -9 11 -8 14 9 14 11 0 25 -7 32 -15 31 -37 230 3 230 46 0 18
-13 19 -278 19 l-278 0 -32 -65z"/>
<path d="M5854 9523 c-19 -43 -44 -98 -54 -123 -10 -25 -35 -78 -55 -119 -21
-43 -32 -78 -27 -83 17 -17 173 -69 295 -99 21 -5 74 -27 119 -49 62 -31 84
-38 94 -29 8 6 14 16 14 21 0 5 9 28 19 51 10 23 46 105 79 182 82 191 120
277 132 297 15 27 14 28 -51 28 -54 0 -60 -2 -54 -17 18 -44 17 -60 -9 -77
-29 -19 -36 -42 -8 -31 43 18 52 18 52 -3 0 -12 -4 -24 -10 -27 -5 -3 -10 1
-10 9 0 9 -7 16 -15 16 -10 0 -14 -10 -12 -36 1 -22 -3 -39 -10 -41 -9 -3 -11
4 -6 27 8 41 -11 54 -48 34 -16 -8 -37 -14 -49 -14 -15 0 -20 -6 -20 -26 0
-17 -7 -28 -18 -31 -19 -5 -57 -73 -41 -73 5 0 9 4 9 10 0 5 9 14 21 21 18 9
20 8 15 -9 -6 -17 -3 -19 15 -15 19 5 21 3 14 -13 -4 -10 -15 -50 -25 -88 -9
-39 -22 -72 -29 -74 -9 -3 -11 2 -8 14 3 11 9 40 12 65 l7 46 -82 6 c-45 3
-86 9 -91 14 -8 8 7 63 24 90 5 7 1 9 -13 6 -14 -4 -23 2 -31 21 -15 32 -5 45
19 23 16 -15 20 -15 50 3 40 25 40 31 1 28 -27 -3 -33 1 -41 25 -13 35 -1 49
18 22 10 -13 24 -19 41 -17 14 2 29 -1 32 -7 10 -16 71 -26 71 -12 0 6 -8 11
-19 11 -23 0 -45 25 -35 41 5 9 -3 10 -30 5 -33 -6 -37 -4 -46 19 l-10 27 -43
-44 c-39 -38 -46 -54 -69 -143 l-26 -100 34 -28 c19 -16 34 -35 34 -43 0 -21
-18 -17 -30 6 -6 11 -17 20 -25 20 -29 0 -31 138 -4 243 5 20 13 37 18 37 4 0
17 18 30 40 l22 40 -50 0 -50 0 -37 -77z m456 -103 c0 -5 -5 -10 -11 -10 -5 0
-7 5 -4 10 3 6 8 10 11 10 2 0 4 -4 4 -10z m-14 -67 c-10 -10 -19 5 -10 18 6
11 8 11 12 0 2 -7 1 -15 -2 -18z m-231 -117 c14 -9 25 -21 25 -26 0 -13 -37
-13 -45 0 -3 6 -15 10 -26 10 -19 0 -49 21 -49 35 0 11 70 -2 95 -19z"/>
<path d="M6077 9586 c18 -32 24 -35 51 -24 56 24 55 34 -3 34 -37 1 -52 -2
-48 -10z"/>
<path d="M7485 9540 c66 -33 126 -59 133 -59 7 -1 12 12 12 32 -1 30 -5 34
-63 60 -50 22 -76 27 -132 26 l-70 -1 120 -58z"/>
<path d="M3808 9573 c-25 -3 -38 -9 -38 -19 0 -16 26 -19 35 -4 8 13 81 13
105 0 13 -7 21 -7 25 0 3 5 25 10 47 10 23 0 39 2 37 4 -7 7 -167 13 -211 9z"/>
<path d="M3703 9563 c-13 -2 -23 -11 -23 -19 0 -11 6 -14 20 -10 11 3 29 9 40
12 11 3 20 10 20 15 0 9 -17 10 -57 2z"/>
<path d="M4769 9471 c-13 -11 -22 -22 -19 -24 3 -3 19 6 35 19 17 13 25 24 19
24 -7 0 -22 -9 -35 -19z"/>
<path d="M6514 9415 c-9 -14 -15 -28 -12 -30 2 -2 12 9 22 25 21 36 13 40 -10
5z"/>
<path d="M4980 9411 c0 -5 5 -13 10 -16 6 -3 10 -2 10 4 0 5 -4 13 -10 16 -5
3 -10 2 -10 -4z"/>
<path d="M6441 9296 c-25 -39 -73 -115 -108 -168 -62 -95 -94 -157 -58 -113
25 31 218 346 214 349 -2 2 -24 -28 -48 -68z"/>
<path d="M5303 9260 c-8 -11 -9 -21 -3 -25 8 -5 30 24 30 39 0 13 -16 5 -27
-14z"/>
<path d="M5410 9230 c0 -5 5 -10 10 -10 6 0 10 5 10 10 0 6 -4 10 -10 10 -5 0
-10 -4 -10 -10z"/>
<path d="M218 9213 c-16 -2 -28 -9 -28 -14 0 -5 -11 -9 -25 -9 -14 0 -25 -5
-25 -11 0 -6 9 -8 21 -4 26 9 72 -2 64 -15 -3 -6 -21 -10 -38 -11 -18 0 -26
-3 -19 -6 16 -6 6 -23 -14 -23 -8 0 -12 5 -9 10 4 6 -5 10 -19 10 -31 0 -34
-16 -6 -25 31 -10 24 -28 -7 -20 -16 4 -47 9 -71 12 l-42 5 0 -342 0 -341 403
6 c221 3 733 10 1137 16 404 5 798 14 875 19 77 5 179 9 226 10 l87 0 35 43
36 44 -120 6 c-87 5 -125 4 -139 -5 -16 -10 -24 -10 -40 0 -11 6 -25 12 -32
12 -10 0 -10 -2 0 -9 14 -8 -79 -20 -218 -27 -41 -2 -95 -5 -120 -8 -27 -2
-48 1 -52 8 -6 8 -16 6 -39 -6 -34 -20 -85 -23 -109 -8 -11 7 -4 10 28 11 44
2 48 2 72 12 23 9 88 16 153 17 31 0 57 4 57 9 0 10 -178 6 -240 -6 -31 -6
-111 -12 -165 -12 -11 0 -43 -1 -72 -1 -28 -1 -54 4 -58 9 -8 14 -52 14 -60 1
-4 -6 -23 -7 -46 -4 -39 7 -75 -9 -63 -27 3 -5 -15 -9 -40 -9 -25 0 -48 5 -51
10 -3 6 1 10 11 10 11 0 15 6 11 20 -6 23 13 69 28 71 43 3 86 28 55 30 -8 1
-18 1 -22 0 -5 0 -8 4 -8 9 0 6 13 10 29 10 16 0 43 8 60 18 25 14 34 15 51 5
24 -16 57 -17 66 -2 3 6 24 9 45 7 22 -2 39 0 39 4 0 4 7 5 15 2 8 -4 15 -13
15 -21 0 -12 3 -12 22 1 30 21 55 22 38 1 -10 -12 -9 -15 5 -15 14 0 16 5 10
27 -9 38 -14 41 -31 19 -10 -15 -17 -17 -25 -9 -17 17 -4 41 27 49 17 4 29 2
35 -7 5 -8 9 -9 9 -3 0 14 48 36 61 29 5 -4 9 -2 9 4 0 5 8 9 18 9 9 0 25 3
35 7 9 4 17 3 17 -3 0 -11 69 2 100 18 13 7 20 6 24 -5 4 -11 22 -15 66 -15
33 0 60 -4 60 -8 0 -4 16 -6 35 -4 29 4 34 1 29 -12 -3 -9 -1 -16 5 -16 6 0
11 9 11 21 0 18 4 20 26 15 42 -11 24 17 -22 32 -21 8 -53 20 -71 29 -34 16
-151 13 -228 -6 -31 -8 -45 -7 -61 4 -12 8 -25 11 -28 8 -9 -9 -30 -12 -91
-15 -41 -1 -58 -8 -95 -37 -24 -20 -51 -36 -60 -36 -9 0 -14 -8 -12 -20 2 -13
0 -16 -5 -8 -13 18 -64 36 -102 35 l-34 -1 26 27 c25 24 27 25 45 9 23 -21 36
-21 52 -2 7 8 16 12 21 9 5 -3 9 0 9 5 0 6 -13 11 -30 11 -30 0 -40 13 -19 25
5 4 7 19 4 34 -5 24 -1 30 27 44 32 16 32 17 7 17 -14 0 -37 -6 -51 -12 -29
-14 -63 -63 -54 -77 12 -19 -7 -41 -35 -41 -24 0 -29 4 -29 25 0 22 -4 25 -35
25 -20 0 -35 5 -35 11 0 16 31 38 53 39 10 0 25 6 32 14 22 21 -10 30 -38 11
-12 -8 -28 -15 -36 -15 -8 0 -22 -7 -31 -15 -9 -8 -34 -16 -56 -18 -32 -2 -38
1 -36 16 2 12 -4 17 -23 17 -20 0 -25 5 -25 25 0 18 -5 25 -19 25 -11 0 -23
-4 -26 -10 -3 -5 -2 -10 3 -10 18 0 21 -29 7 -57 -8 -15 -12 -38 -9 -50 7 -27
-11 -31 -25 -5 -9 16 -12 16 -38 1 -29 -16 -63 -15 -63 2 0 19 -28 8 -33 -13
-6 -20 -7 -21 -24 -6 -13 12 -27 15 -53 9 -19 -4 -50 -3 -68 2 -19 4 -40 6
-48 3 -7 -3 -16 -1 -19 4 -4 6 10 10 32 10 26 0 34 3 24 9 -15 10 -61 7 -148
-7 -34 -6 -54 -5 -56 1 -4 14 -105 19 -129 6 -14 -7 -23 -7 -33 1 -7 6 -30 10
-51 8 -23 -1 -39 2 -42 10 -4 14 -42 16 -42 2 0 -5 -4 -10 -10 -10 -17 0 -11
14 10 28 12 7 26 9 33 5 6 -4 43 -8 81 -8 57 -1 72 2 87 19 11 11 19 23 19 28
0 4 10 8 23 8 19 1 17 4 -13 20 -34 18 -34 21 -8 24 6 0 13 7 16 14 2 8 -8 12
-32 12 -20 0 -36 5 -36 10 0 10 21 15 50 12 60 -7 108 28 58 42 -33 8 -40 7
-33 -4 10 -15 -23 -24 -48 -12 -22 10 -22 10 6 21 36 14 35 29 -3 23 -16 -2
-30 -8 -30 -13 0 -5 -7 -9 -15 -9 -8 0 -15 -5 -15 -10 0 -6 -8 -5 -20 2 -17
11 -22 10 -29 0 -11 -17 -282 -23 -288 -6 -3 8 31 10 112 8 85 -3 116 -1 113
8 -2 6 -14 15 -26 19 -17 7 -22 5 -22 -9 0 -14 -2 -14 -9 -3 -9 15 -50 20
-168 22 -89 2 -83 24 7 28 19 1 37 6 38 11 2 6 10 10 18 10 9 0 12 5 9 10 -3
6 -24 10 -46 10 -22 0 -38 -4 -35 -9 3 -5 -4 -11 -15 -14 -15 -4 -19 -2 -15 9
3 8 0 13 -7 13 -7 -1 -24 -4 -39 -6z m422 -152 c0 -5 -6 -11 -14 -14 -18 -7
-97 4 -91 13 6 10 105 12 105 1z m-545 -10 c3 -5 1 -12 -5 -16 -5 -3 -10 1
-10 9 0 18 6 21 15 7z m243 -9 c2 -8 -11 -12 -48 -12 -41 0 -50 3 -42 13 13
16 84 16 90 -1z m82 9 c0 -5 15 -12 33 -17 l32 -8 -44 -4 c-53 -4 -72 2 -65
23 6 16 44 21 44 6z m60 -1 c0 -5 -5 -10 -11 -10 -5 0 -7 5 -4 10 3 6 8 10 11
10 2 0 4 -4 4 -10z m-283 -16 c-3 -3 -12 -4 -19 -1 -8 3 -5 6 6 6 11 1 17 -2
13 -5z m479 -19 c19 -14 19 -14 -1 -15 -11 0 -31 3 -44 7 -23 6 -23 7 -5 14
27 11 28 11 50 -6z m-236 -105 c11 -7 7 -10 -18 -10 -20 0 -31 4 -27 10 8 13
26 13 45 0z m1255 1 c3 -5 1 -12 -5 -16 -5 -3 -10 1 -10 9 0 18 6 21 15 7z
m-1005 -49 c33 5 41 -7 11 -17 -28 -9 -71 5 -71 22 0 13 3 13 15 3 8 -7 28
-10 45 -8z m670 8 c0 -5 -2 -10 -4 -10 -3 0 -8 5 -11 10 -3 6 -1 10 4 10 6 0
11 -4 11 -10z m-1185 -20 c3 -5 1 -10 -4 -10 -6 0 -11 5 -11 10 0 6 2 10 4 10
3 0 8 -4 11 -10z m405 1 c0 -14 -34 -23 -54 -15 -14 5 -15 9 -4 15 18 12 58
11 58 0z m300 0 c0 -17 -19 -23 -50 -16 -43 9 -37 25 10 25 22 0 40 -4 40 -9z
m-640 -11 c0 -5 -7 -10 -16 -10 -8 0 -12 5 -9 10 3 6 10 10 16 10 5 0 9 -4 9
-10z m535 0 c-3 -5 -10 -10 -16 -10 -5 0 -9 5 -9 10 0 6 7 10 16 10 8 0 12 -4
9 -10z m515 -31 c0 -5 -4 -9 -10 -9 -5 0 -10 7 -10 16 0 8 5 12 10 9 6 -3 10
-10 10 -16z m73 -35 c-2 -7 -11 -11 -19 -8 -50 15 -48 13 -30 33 16 18 19 18
36 4 10 -9 16 -22 13 -29z m-1068 16 c-3 -5 -10 -10 -16 -10 -5 0 -9 5 -9 10
0 6 7 10 16 10 8 0 12 -4 9 -10z m802 -1 c24 0 57 -6 73 -14 20 -10 30 -11 32
-3 3 8 14 6 35 -7 19 -11 29 -24 26 -32 -3 -8 3 -20 13 -28 19 -14 18 -14 -1
-15 -15 0 -16 -3 -7 -12 16 -16 15 -28 -3 -28 -26 0 -85 -33 -91 -52 -7 -24
-20 -23 -27 3 -5 18 -10 20 -39 14 -18 -4 -37 -11 -43 -15 -18 -13 -97 -22
-89 -9 4 8 0 9 -14 5 -12 -4 -37 -3 -57 3 -21 5 -37 6 -41 0 -3 -5 1 -9 8 -9
7 -1 -4 -10 -25 -21 -45 -24 -72 -21 -72 6 0 15 -7 20 -28 20 -15 -1 -27 3
-27 7 0 4 -17 8 -37 8 -21 1 -51 6 -67 13 -25 11 -18 13 68 14 57 1 96 -3 96
-9 0 -5 10 -6 22 -2 13 4 36 7 51 6 l29 -1 -23 20 c-12 10 -31 19 -43 20 -51
2 43 20 104 20 36 -1 110 2 165 6 l100 7 -80 12 c-65 10 -85 9 -108 -2 -28
-13 -61 -9 -52 7 3 4 12 6 20 3 9 -4 13 1 11 13 -2 14 -10 17 -32 15 -33 -4
-56 -20 -48 -33 3 -5 1 -9 -5 -9 -5 0 -11 5 -13 10 -2 7 -19 5 -47 -5 -51 -17
-71 -19 -71 -5 0 6 17 10 37 10 35 0 39 14 5 16 -10 1 -30 2 -47 3 -22 1 -26
4 -15 10 25 14 79 21 85 11 3 -4 18 -2 33 5 28 14 170 35 186 27 5 -3 29 -4
53 -3z m550 -31 c-3 -8 -6 -5 -6 6 -1 11 2 17 5 13 3 -3 4 -12 1 -19z m-1119
2 c10 0 13 -3 6 -10 -11 -11 -54 -2 -54 12 0 6 7 7 16 4 9 -3 23 -6 32 -6z
m112 -5 c0 -11 -11 -15 -40 -15 -29 0 -40 4 -40 15 0 11 11 15 40 15 29 0 40
-4 40 -15z m689 -14 c9 -6 10 -11 2 -15 -14 -9 -51 2 -51 15 0 11 30 12 49 0z
m-932 -37 c-3 -3 -12 -4 -19 -1 -8 3 -5 6 6 6 11 1 17 -2 13 -5z m110 -20 c-3
-3 -12 -4 -19 -1 -8 3 -5 6 6 6 11 1 17 -2 13 -5z m269 -5 c10 -17 -12 -32
-35 -24 -29 9 -27 35 3 35 14 0 28 -5 32 -11z m569 1 c-3 -5 -11 -10 -16 -10
-6 0 -7 5 -4 10 3 6 11 10 16 10 6 0 7 -4 4 -10z m42 4 c-3 -3 -12 -4 -19 -1
-8 3 -5 6 6 6 11 1 17 -2 13 -5z m-1240 -24 c6 -23 23 -27 23 -5 0 8 7 15 15
15 8 0 15 -6 15 -14 0 -19 -30 -42 -51 -38 -9 2 -20 -2 -24 -8 -8 -13 -45 -13
-45 0 0 5 9 14 20 20 11 6 18 15 15 21 -4 5 -3 14 0 19 10 16 27 11 32 -10z
m253 13 c0 -12 -66 -14 -92 -4 -18 8 -11 10 35 10 31 1 57 -2 57 -6z m-160
-13 c0 -5 19 -9 43 -8 97 3 210 -10 226 -27 9 -9 12 -15 6 -14 -28 5 -55 -3
-55 -15 0 -11 20 -17 73 -22 l72 -8 -60 -8 c-33 -4 -89 -7 -125 -7 -36 1 -76
-3 -90 -7 -22 -6 -23 -5 -12 8 10 13 8 15 -15 10 -16 -3 -31 -9 -34 -14 -11
-17 -85 -28 -130 -20 l-44 8 33 7 c17 4 45 10 61 13 22 4 28 10 24 24 -3 12 2
20 17 25 20 6 20 8 6 31 -19 27 -20 34 -6 34 6 0 10 -4 10 -10z m1060 -44 c0
-3 -4 -8 -10 -11 -5 -3 -10 -1 -10 4 0 6 5 11 10 11 6 0 10 -2 10 -4z m60 -16
c0 -5 -4 -10 -10 -10 -5 0 -10 5 -10 10 0 6 5 10 10 10 6 0 10 -4 10 -10z
m-1196 -15 c-7 -17 -30 -20 -38 -6 -4 5 0 12 6 14 25 10 37 7 32 -8z m560 -1
c32 -12 15 -24 -34 -24 -56 0 -68 16 -17 23 17 2 33 5 34 5 1 1 8 -1 17 -4z
m356 -15 c0 -5 -7 -9 -15 -9 -15 0 -20 12 -9 23 8 8 24 -1 24 -14z m60 -9 c0
-5 -4 -10 -9 -10 -6 0 -13 5 -16 10 -3 6 1 10 9 10 9 0 16 -4 16 -10z m140 0
c0 -10 -72 -11 -87 -2 -6 4 11 8 38 9 27 0 49 -3 49 -7z m-400 -21 c0 -12 -37
-12 -44 0 -3 4 -3 11 0 14 8 7 44 -4 44 -14z m860 1 c0 -5 -2 -10 -4 -10 -3 0
-8 5 -11 10 -3 6 -1 10 4 10 6 0 11 -4 11 -10z m-1180 -9 c0 -9 -23 -21 -40
-21 -4 0 -10 7 -14 15 -4 11 2 15 24 15 17 0 30 -4 30 -9z m1030 -1 c0 -5 -6
-10 -14 -10 -8 0 -18 5 -21 10 -3 6 3 10 14 10 12 0 21 -4 21 -10z m40 0 c-19
-13 -30 -13 -30 0 0 6 10 10 23 10 18 0 19 -2 7 -10z m-1178 -12 c-9 -9 -15
-9 -24 0 -9 9 -7 12 12 12 19 0 21 -3 12 -12z m-105 -4 c-3 -3 -12 -4 -19 -1
-8 3 -5 6 6 6 11 1 17 -2 13 -5z"/>
<path d="M1030 8750 c26 -20 70 -27 70 -10 0 8 -62 30 -85 30 -5 0 1 -9 15
-20z"/>
<path d="M1120 8744 c0 -9 7 -14 17 -12 25 5 28 28 4 28 -12 0 -21 -6 -21 -16z"/>
<path d="M1200 8705 c0 -9 6 -12 15 -9 8 4 12 10 9 15 -8 14 -24 10 -24 -6z"/>
<path d="M905 8660 c-3 -5 3 -10 15 -10 12 0 18 5 15 10 -3 6 -10 10 -15 10
-5 0 -12 -4 -15 -10z"/>
<path d="M960 8655 c0 -9 -10 -15 -22 -16 -18 -1 -19 -2 -5 -6 18 -5 47 12 47
28 0 5 -4 9 -10 9 -5 0 -10 -7 -10 -15z"/>
<path d="M1120 8660 c0 -5 16 -10 35 -10 19 0 35 5 35 10 0 6 -16 10 -35 10
-19 0 -35 -4 -35 -10z"/>
<path d="M1040 8641 c13 -11 28 -17 33 -14 5 3 4 9 -3 13 -9 6 -8 9 6 13 10 2
1 5 -21 6 l-40 1 25 -19z"/>
<path d="M996 8625 c10 -8 26 -14 34 -14 11 0 10 3 -4 14 -11 8 -27 15 -35 15
-11 0 -10 -4 5 -15z"/>
<path d="M800 8590 c0 -13 11 -13 30 0 12 8 11 10 -7 10 -13 0 -23 -4 -23 -10z"/>
<path d="M360 8607 c0 -19 47 -40 56 -25 8 12 -22 38 -43 38 -7 0 -13 -6 -13
-13z"/>
<path d="M603 9213 c-29 -3 -43 -9 -43 -19 0 -10 13 -14 50 -14 28 0 50 5 50
10 0 6 10 10 23 11 21 0 21 1 2 9 -11 5 -24 8 -30 8 -5 -1 -29 -3 -52 -5z"/>
<path d="M2568 9206 c3 -5 -10 -7 -29 -4 -19 3 -52 2 -74 -2 -30 -6 -14 -8 68
-9 82 -1 107 2 107 12 0 9 -13 13 -39 12 -21 0 -37 -4 -33 -9z"/>
<path d="M2655 9210 c-3 -5 -1 -11 4 -14 12 -8 118 2 156 13 23 8 9 10 -63 9
-51 0 -95 -4 -97 -8z"/>
<path d="M38 9203 c7 -3 16 -2 19 1 4 3 -2 6 -13 5 -11 0 -14 -3 -6 -6z"/>
<path d="M5490 9200 c0 -5 5 -10 10 -10 6 0 10 5 10 10 0 6 -4 10 -10 10 -5 0
-10 -4 -10 -10z"/>
<path d="M445 9190 c4 -6 11 -8 16 -5 14 9 11 15 -7 15 -8 0 -12 -5 -9 -10z"/>
<path d="M4481 9196 c10 -9 69 -36 69 -32 0 6 -55 36 -66 36 -4 0 -5 -2 -3 -4z"/>
<path d="M4115 9160 l-40 -7 43 -2 c23 0 42 4 42 9 0 6 -1 9 -2 9 -2 -1 -21
-5 -43 -9z"/>
<path d="M1243 9133 c-29 -6 -37 -30 -12 -38 21 -7 162 5 141 12 -6 3 -10 9
-7 14 4 5 -1 6 -9 3 -9 -3 -16 -1 -16 5 0 11 -51 13 -97 4z"/>
<path d="M870 9121 l-55 -7 35 -15 c19 -9 44 -13 55 -10 18 4 18 6 -5 12 -20
6 -16 7 20 8 33 1 41 4 30 11 -8 5 -17 9 -20 8 -3 -1 -30 -4 -60 -7z"/>
<path d="M980 9120 c-24 -15 -7 -18 20 -3 14 7 18 13 10 13 -8 0 -22 -4 -30
-10z"/>
<path d="M1835 9120 c-8 -13 15 -13 35 0 12 8 11 10 -7 10 -12 0 -25 -4 -28
-10z"/>
<path d="M4160 9120 c-8 -5 -10 -10 -5 -10 6 0 17 5 25 10 8 5 11 10 5 10 -5
0 -17 -5 -25 -10z"/>
<path d="M1410 9110 c-10 -7 5 -10 49 -10 35 0 62 2 60 4 -11 9 -96 14 -109 6z"/>
<path d="M1540 9116 c0 -9 30 -14 35 -6 4 6 -3 10 -14 10 -12 0 -21 -2 -21 -4z"/>
<path d="M1720 9110 c0 -5 4 -10 9 -10 6 0 13 5 16 10 3 6 -1 10 -9 10 -9 0
-16 -4 -16 -10z"/>
<path d="M2174 9086 c-10 -8 -16 -18 -12 -22 11 -10 60 14 53 26 -8 14 -18 13
-41 -4z"/>
<path d="M2975 9090 c-3 -5 1 -10 9 -10 8 0 18 5 21 10 3 6 -1 10 -9 10 -8 0
-18 -4 -21 -10z"/>
<path d="M3645 9090 c11 -5 31 -9 45 -9 20 -1 22 1 10 9 -8 5 -28 9 -45 9 -26
0 -27 -2 -10 -9z"/>
<path d="M1512 9074 c-7 -8 -8 -14 -3 -14 10 0 25 19 20 25 -2 1 -10 -3 -17
-11z"/>
<path d="M1763 9076 c-76 -14 -92 -26 -27 -21 66 6 143 20 151 28 9 10 -51 6
-124 -7z"/>
<path d="M3773 9083 c9 -2 23 -2 30 0 6 3 -1 5 -18 5 -16 0 -22 -2 -12 -5z"/>
<path d="M1343 9068 c-2 -5 10 -8 26 -8 17 0 31 4 31 9 0 11 -50 9 -57 -1z"/>
<path d="M2500 9070 c-12 -8 -11 -10 8 -10 12 0 22 5 22 10 0 13 -11 13 -30 0z"/>
<path d="M775 9060 c3 -5 10 -10 16 -10 5 0 9 5 9 10 0 6 -7 10 -16 10 -8 0
-12 -4 -9 -10z"/>
<path d="M845 9056 c-18 -13 -16 -15 25 -27 34 -10 44 -11 48 -1 2 7 13 12 25
12 20 -1 20 -2 5 -11 -31 -18 -20 -30 25 -27 36 3 42 6 43 26 1 17 -3 21 -17
17 -15 -5 -51 1 -120 21 -8 2 -24 -2 -34 -10z"/>
<path d="M1265 9063 c-11 -2 -31 -6 -44 -9 l-24 -5 28 -15 c36 -18 48 -18 76
4 21 18 21 19 3 23 -10 3 -28 4 -39 2z"/>
<path d="M3540 9056 c6 -8 18 -12 26 -9 19 7 7 23 -18 23 -17 0 -18 -3 -8 -14z"/>
<path d="M5946 9002 c-26 -39 -46 -75 -46 -81 0 -6 -7 -11 -16 -11 -14 0 -14
-3 -4 -15 17 -21 44 -20 36 1 -6 16 40 110 72 147 8 9 12 20 9 23 -3 4 -26
-25 -51 -64z"/>
<path d="M1648 9053 c7 -3 16 -2 19 1 4 3 -2 6 -13 5 -11 0 -14 -3 -6 -6z"/>
<path d="M1865 9049 c-4 -6 -14 -8 -22 -5 -8 4 -11 2 -7 -5 4 -7 0 -9 -13 -5
-12 4 -25 1 -33 -9 -10 -12 -10 -15 3 -15 16 0 107 38 107 45 0 10 -29 5 -35
-6z"/>
<path d="M1066 9033 c22 -16 31 -16 39 -3 5 8 11 7 21 -1 12 -10 18 -9 32 4
15 16 12 17 -47 15 -55 -1 -61 -3 -45 -15z"/>
<path d="M1540 9029 l-65 -19 53 6 c58 5 100 18 86 26 -5 3 -38 -3 -74 -13z"/>
<path d="M3716 9031 c14 -15 64 -25 64 -13 0 12 -24 22 -53 22 -13 0 -17 -4
-11 -9z"/>
<path d="M6859 8964 c-42 -95 -50 -113 -109 -249 -93 -213 -182 -417 -241
-552 -80 -184 -80 -183 63 -413 33 -52 80 -124 105 -160 51 -72 193 -250 200
-250 2 0 13 21 25 46 11 26 33 69 49 95 l28 49 -39 31 c-22 18 -40 38 -40 46
0 19 9 16 46 -16 18 -16 40 -33 49 -38 14 -8 9 -22 -35 -109 -29 -54 -56 -104
-61 -111 -11 -12 24 -76 55 -103 10 -7 31 -33 46 -56 30 -42 29 -42 312 -162
4 -2 12 7 18 20 37 88 115 268 150 348 24 52 67 153 96 224 l54 130 0 471 0
471 -132 54 c-198 80 -392 175 -561 274 l-47 28 -31 -68z m521 -295 c0 -5 -9
-9 -20 -9 -13 0 -18 5 -14 14 6 15 34 11 34 -5z m84 -2 c28 -21 16 -41 -12
-22 -22 16 -30 35 -14 35 5 0 16 -6 26 -13z m-4 -125 c0 -7 -4 -22 -10 -32 -8
-15 -15 -17 -41 -10 -33 10 -49 6 -49 -12 0 -6 11 -8 25 -6 17 4 25 1 25 -9 0
-7 9 -17 20 -21 10 -4 16 -12 12 -17 -13 -20 -61 -45 -84 -45 -18 0 -20 2 -8
10 11 7 12 12 3 21 -16 16 -35 1 -28 -22 5 -13 2 -19 -10 -19 -21 0 -9 -19 19
-30 19 -8 18 -9 -10 -9 -31 -1 -59 15 -66 37 -2 8 -15 0 -35 -22 -25 -29 -28
-37 -17 -47 21 -17 17 -36 -8 -43 -30 -7 -47 10 -18 19 20 6 20 8 5 25 -15 16
-15 19 1 34 9 9 14 19 11 22 -3 3 -19 -9 -35 -28 -43 -47 -49 -30 -7 20 26 29
44 42 68 44 29 3 32 7 35 38 2 20 12 40 23 48 10 7 19 22 19 33 0 46 83 77
133 50 15 -8 27 -21 27 -29z m71 -242 c31 -17 22 -28 -28 -35 -27 -3 -61 -9
-77 -12 -39 -7 -31 14 14 39 39 20 63 23 91 8z m-526 -170 c3 -5 1 -10 -4 -10
-6 0 -11 5 -11 10 0 6 2 10 4 10 3 0 8 -4 11 -10z m-208 -141 c7 -7 9 -25 6
-40 -3 -18 -1 -29 6 -29 6 0 11 5 11 10 0 14 38 12 43 -2 7 -22 -4 -38 -28
-38 -13 0 -27 5 -30 10 -3 6 -27 10 -52 10 -43 0 -45 1 -30 18 8 9 20 29 26
45 11 29 29 35 48 16z m459 -66 c-11 -11 -19 6 -11 24 8 17 8 17 12 0 3 -10 2
-21 -1 -24z m-655 -66 c-5 -5 -18 -4 -30 2 -32 17 -25 31 9 18 17 -6 26 -15
21 -20z m529 -53 c0 -8 -4 -12 -10 -9 -5 3 -10 10 -10 16 0 5 5 9 10 9 6 0 10
-7 10 -16z m34 -29 c-4 -8 -10 -12 -15 -9 -14 8 -10 24 6 24 9 0 12 -6 9 -15z
m-4 -102 c0 -5 -4 -14 -9 -22 -7 -11 2 -27 30 -59 41 -48 42 -62 3 -62 -14 0
-27 -6 -30 -14 -3 -8 -12 -17 -20 -20 -11 -4 -12 -2 -4 14 16 30 12 49 -9 43
-26 -7 -38 42 -16 66 8 10 15 22 15 27 0 12 21 34 32 34 4 0 8 -3 8 -7z m-172
-42 c38 -35 53 -61 35 -61 -18 1 -103 71 -103 85 0 25 22 16 68 -24z"/>
<path d="M2811 9011 c-7 -5 -10 -14 -6 -20 5 -9 10 -9 21 0 26 22 14 38 -15
20z"/>
<path d="M1660 8980 c0 -5 5 -10 10 -10 6 0 10 5 10 10 0 6 -4 10 -10 10 -5 0
-10 -4 -10 -10z"/>
<path d="M1280 8970 c0 -6 7 -10 15 -10 8 0 15 2 15 4 0 2 -7 6 -15 10 -8 3
-15 1 -15 -4z"/>
<path d="M2226 8951 c-9 -15 -8 -16 21 -25 12 -4 24 -2 28 4 3 5 -2 10 -14 10
-10 0 -21 5 -23 12 -3 9 -6 9 -12 -1z"/>
<path d="M800 8940 c0 -6 7 -10 15 -10 8 0 15 2 15 4 0 2 -7 6 -15 10 -8 3
-15 1 -15 -4z"/>
<path d="M895 8940 c3 -5 13 -10 21 -10 8 0 14 5 14 10 0 6 -9 10 -21 10 -11
0 -17 -4 -14 -10z"/>
<path d="M2320 8915 c0 -9 6 -12 15 -9 8 4 21 1 28 -4 7 -6 19 -7 26 -3 9 6 3
12 -20 20 -42 14 -49 14 -49 -4z"/>
<path d="M3240 8900 c0 -23 38 -28 58 -8 20 20 14 28 -23 28 -28 0 -35 -4 -35
-20z"/>
<path d="M5590 8900 c-9 -6 -10 -10 -3 -10 6 0 15 5 18 10 8 12 4 12 -15 0z"/>
<path d="M2551 8878 c-1 -23 3 -28 24 -28 14 0 25 5 25 10 0 6 -9 10 -19 10
-11 0 -22 8 -24 18 -3 10 -5 6 -6 -10z"/>
<path d="M5186 8878 c-7 -13 -21 -57 -31 -98 -9 -41 -28 -113 -41 -160 -25
-89 -54 -238 -54 -280 0 -24 2 -25 63 -25 54 0 68 -4 95 -27 54 -45 129 -78
180 -78 26 -1 58 -7 72 -15 36 -21 78 -19 92 5 14 22 62 27 74 8 4 -6 -2 -19
-13 -28 -20 -16 -20 -17 21 -38 23 -13 65 -42 94 -65 28 -23 73 -51 99 -61 26
-11 50 -23 53 -28 9 -12 61 29 97 76 18 22 45 55 60 72 57 63 121 141 162 200
46 66 42 51 67 275 6 53 5 56 -17 62 -34 9 -41 9 -34 -3 15 -24 -54 8 -85 40
-3 3 -17 11 -32 19 -15 8 -25 18 -22 22 3 5 -2 6 -10 3 -9 -3 -16 -1 -16 4 0
12 -55 42 -77 42 -7 0 -13 5 -13 10 0 6 -7 10 -15 10 -8 0 -15 5 -15 10 0 6
-9 10 -19 10 -11 0 -23 5 -26 10 -11 18 -36 11 -66 -19 -18 -18 -29 -24 -29
-15 0 8 -7 14 -16 14 -9 0 -14 -6 -12 -12 7 -21 -14 -34 -49 -30 -25 3 -42 -3
-68 -22 -19 -15 -35 -33 -35 -40 0 -8 -7 -17 -16 -20 -25 -10 -84 -7 -84 4 0
6 -30 10 -72 9 -49 -1 -63 -4 -43 -8 20 -4 31 -13 33 -26 3 -19 -2 -20 -90
-17 -99 4 -118 13 -118 58 0 12 -7 25 -16 28 -12 5 -15 16 -11 49 5 49 16 77
28 77 5 0 9 5 9 10 0 19 -40 10 -54 -12z m251 -234 c-3 -3 -12 -4 -19 -1 -8 3
-5 6 6 6 11 1 17 -2 13 -5z m773 -4 c0 -5 -7 -7 -15 -4 -8 4 -15 8 -15 10 0 2
7 4 15 4 8 0 15 -4 15 -10z m-807 -247 c-7 -2 -19 -2 -25 0 -7 3 -2 5 12 5 14
0 19 -2 13 -5z m37 -13 c0 -5 -4 -10 -10 -10 -5 0 -10 5 -10 10 0 6 5 10 10
10 6 0 10 -4 10 -10z m47 -27 c-8 -7 -37 9 -31 19 3 5 12 4 20 -3 8 -6 13 -14
11 -16z"/>
<path d="M1028 8883 c6 -2 18 -2 25 0 6 3 1 5 -13 5 -14 0 -19 -2 -12 -5z"/>
<path d="M2608 8823 c7 -3 16 -2 19 1 4 3 -2 6 -13 5 -11 0 -14 -3 -6 -6z"/>
<path d="M5353 8823 c-24 -9 -13 -23 18 -23 27 0 30 2 19 15 -13 16 -17 17
-37 8z"/>
<path d="M2420 8780 c0 -5 5 -10 10 -10 6 0 10 5 10 10 0 6 -4 10 -10 10 -5 0
-10 -4 -10 -10z"/>
<path d="M2100 8750 c0 -5 5 -10 10 -10 6 0 10 5 10 10 0 6 -4 10 -10 10 -5 0
-10 -4 -10 -10z"/>
<path d="M5585 8730 c-3 -5 -1 -10 4 -10 6 0 11 5 11 10 0 6 -2 10 -4 10 -3 0
-8 -4 -11 -10z"/>
<path d="M2065 8720 c4 -6 11 -8 16 -5 14 9 11 15 -7 15 -8 0 -12 -5 -9 -10z"/>
<path d="M1865 8670 c-3 -5 -1 -10 4 -10 6 0 11 5 11 10 0 6 -2 10 -4 10 -3 0
-8 -4 -11 -10z"/>
<path d="M2823 8672 c-13 -2 -23 -10 -23 -18 0 -11 11 -13 58 -8 67 7 82 11
82 21 0 8 -79 12 -117 5z"/>
<path d="M1680 8662 c0 -6 -11 -13 -25 -16 -14 -4 -23 -11 -20 -16 8 -13 45
-13 45 0 0 6 5 10 10 10 6 0 10 -7 10 -15 0 -15 35 -21 44 -7 2 4 -1 14 -7 23
-14 19 -57 35 -57 21z"/>
<path d="M2383 8663 c-46 -3 -63 -8 -63 -18 0 -8 6 -12 13 -10 12 5 127 12
210 14 26 1 47 6 47 11 0 10 -68 11 -207 3z"/>
<path d="M1900 8640 c0 -5 5 -10 11 -10 5 0 7 5 4 10 -3 6 -8 10 -11 10 -2 0
-4 -4 -4 -10z"/>
<path d="M2028 8632 c-14 -2 -32 -10 -38 -18 -15 -17 -60 -19 -60 -1 0 8 -3 9
-8 1 -4 -6 -14 -13 -22 -16 -8 -3 11 -6 43 -6 32 -1 57 2 57 8 0 6 20 10 44
10 63 0 136 11 136 21 0 8 -88 8 -152 1z"/>
<path d="M2190 8630 c0 -12 20 -12 75 -1 40 9 39 9 -17 10 -33 0 -58 -3 -58
-9z"/>
<path d="M3168 8612 c-16 -9 -28 -25 -28 -35 0 -9 -11 -22 -24 -28 -13 -6 -27
-21 -30 -32 -5 -21 -5 -21 -30 2 -36 34 -96 22 -145 -30 -58 -61 -77 -86 -75
-95 1 -5 5 -22 8 -37 4 -17 16 -31 31 -37 37 -14 30 -27 -14 -28 -25 -1 -46 4
-56 14 -9 9 -19 14 -22 11 -3 -4 -15 0 -27 8 -28 20 -39 19 -31 -5 7 -22 -5
-26 -23 -8 -9 9 -15 8 -27 -8 -8 -10 -15 -25 -15 -31 0 -21 -16 -15 -52 17
-43 40 -75 48 -93 24 -12 -15 -16 -16 -24 -5 -5 8 -10 9 -12 2 -2 -5 -19 -11
-36 -13 -18 -1 -33 -6 -33 -11 0 -5 13 -7 30 -4 28 6 50 -6 32 -17 -13 -8
-513 -8 -1052 -1 -383 5 -501 10 -523 20 -15 8 -25 10 -22 5 7 -11 -84 -18
-111 -9 -12 4 -47 4 -77 0 -31 -4 -63 -3 -72 2 -10 5 -21 5 -28 -1 -10 -7 -30
-8 -79 -3 -5 1 -8 7 -8 15 0 10 -12 12 -50 8 -30 -3 -50 -1 -50 6 0 5 -11 12
-25 14 -31 6 -33 -7 -3 -18 19 -6 15 -8 -22 -11 -32 -3 -47 0 -56 11 -13 18
-39 22 -28 5 6 -10 -51 -8 -173 7 -27 3 -43 1 -43 -5 0 -12 14 -16 135 -31 50
-6 117 -15 150 -21 33 -5 263 -12 510 -14 631 -7 861 -12 951 -24 44 -5 181
-9 306 -8 217 2 228 1 228 -17 0 -17 -6 -18 -72 -12 -40 4 -154 7 -253 7 -99
0 -243 5 -320 10 -140 8 -707 20 -1078 21 -109 1 -200 4 -202 8 -3 5 -13 6
-23 3 -11 -2 -52 0 -93 6 -41 6 -110 16 -154 21 -44 6 -91 13 -105 16 -23 5
-23 6 -6 16 15 8 16 12 5 19 -8 5 -17 9 -21 9 -5 0 -8 -190 -8 -421 l0 -421
213 6 c116 3 529 9 917 12 782 6 722 1 761 74 10 19 28 48 41 63 l23 29 86
-66 c48 -36 137 -92 200 -124 269 -137 348 -181 423 -230 74 -49 96 -56 96
-30 0 6 16 35 36 65 32 49 40 54 63 50 15 -3 117 -50 227 -104 109 -55 217
-106 239 -115 22 -9 92 -41 155 -71 63 -30 171 -80 240 -112 366 -168 449
-207 805 -384 304 -151 409 -200 690 -326 189 -85 244 -110 429 -199 87 -42
159 -76 161 -76 1 0 64 -29 139 -65 75 -36 138 -65 140 -65 3 0 37 -15 78 -33
40 -19 116 -53 168 -77 52 -23 109 -54 127 -67 l32 -24 -50 -62 c-28 -34 -62
-81 -76 -104 -14 -24 -29 -43 -34 -43 -11 0 -313 128 -378 160 -23 12 -100 48
-170 80 -69 32 -218 101 -331 155 -113 53 -252 118 -310 144 -189 85 -310 143
-635 305 -301 149 -395 195 -625 304 -52 24 -155 73 -229 108 -73 35 -135 64
-136 64 -14 0 -663 322 -715 355 -68 43 -88 34 -135 -59 -16 -31 -32 -56 -36
-56 -10 0 -181 93 -304 165 -107 62 -216 118 -287 146 -28 11 -86 44 -128 74
-43 30 -89 59 -103 64 -31 12 -67 4 -67 -15 0 -19 -7 -18 -33 6 l-22 21 23 6
c18 4 20 8 11 19 -9 11 -8 14 4 14 9 0 19 5 22 10 4 7 -40 10 -135 9 -112 -2
-140 -5 -136 -16 3 -7 0 -13 -6 -13 -6 0 -6 -6 3 -16 11 -14 9 -15 -22 -12
-21 2 -33 8 -31 16 3 16 -19 15 -43 -2 -24 -17 -99 -23 -139 -11 -18 5 -36 4
-47 -4 -27 -16 -42 -14 -35 5 5 14 1 15 -21 10 -46 -11 -62 -12 -63 -1 -1 6
15 15 36 21 22 6 32 13 23 15 -8 3 -140 4 -294 3 -154 -1 -397 -3 -540 -4
-143 -1 -268 -4 -277 -7 -21 -5 -24 -29 -5 -36 7 -3 21 1 32 9 27 20 44 18 38
-6 -3 -13 -14 -20 -28 -20 -59 0 -55 58 -55 -775 l0 -764 23 -4 22 -4 -22 -2
c-23 -1 -23 -2 -23 -160 l0 -160 28 -4 27 -4 -27 -2 -28 -1 0 -490 0 -490 52
0 c63 0 59 -9 -5 -11 l-47 -2 0 -1543 c0 -1461 1 -1543 18 -1547 16 -4 16 -5
0 -6 -17 -1 -18 -42 -18 -721 l0 -720 3213 1 c1769 0 3203 4 3192 9 -11 5 -27
10 -35 13 -21 6 -160 288 -160 323 0 8 -9 25 -20 37 -12 12 -23 33 -27 47 -3
14 -24 60 -46 103 -21 43 -37 80 -34 83 3 3 -6 22 -19 41 -13 20 -24 42 -24
49 0 7 -6 15 -12 17 -8 3 -1 15 20 32 20 17 32 35 32 51 0 26 -5 28 -62 25
-29 -2 -40 2 -45 15 -4 11 -2 19 6 22 9 3 9 7 0 18 -9 12 -9 17 4 27 10 7 17
30 19 57 3 42 5 45 29 42 36 -4 53 20 44 65 -6 33 -5 35 9 23 10 -7 14 -20 11
-31 -8 -26 11 -24 52 4 35 24 48 60 38 106 -4 21 -1 33 10 43 45 37 53 48 48
66 -2 11 0 23 6 26 6 4 11 18 11 32 0 28 10 30 74 8 42 -15 47 -19 42 -40 -4
-13 -2 -24 3 -24 6 0 8 -6 6 -12 -6 -16 51 -86 61 -76 9 10 -15 70 -34 85 -12
10 -12 13 -3 13 9 0 11 8 8 21 -4 16 -2 19 11 14 9 -4 27 -10 39 -12 12 -3 25
-14 28 -24 3 -10 20 -30 36 -44 17 -14 26 -25 20 -25 -14 0 -14 -37 -1 -45 6
-3 10 -18 10 -33 1 -25 2 -25 14 -10 7 10 18 18 24 18 10 0 -10 51 -39 100
-26 43 -25 44 8 54 15 5 27 0 42 -15 19 -21 23 -21 61 -9 43 14 47 19 28 38
-9 9 -2 20 33 49 57 48 106 101 127 136 17 29 30 31 44 6 4 -8 64 -133 132
-279 371 -795 367 -786 390 -784 19 2 21 -12 4 -19 -9 -3 3 -36 39 -108 101
-203 114 -233 111 -253 -2 -13 -22 -30 -58 -48 l-55 -28 83 0 82 0 0 2081 0
2081 -23 -5 -22 -6 23 16 22 15 0 1149 0 1149 -32 2 c-76 4 -113 3 -119 -5 -8
-11 -60 14 -56 26 2 8 102 11 167 5 30 -3 40 4 40 30 l0 28 -107 -3 c-83 -1
-99 0 -68 7 22 5 70 9 108 9 l67 1 0 149 c0 134 -2 150 -17 154 -17 4 -17 5 0
6 10 1 17 9 17 20 0 11 -8 22 -17 24 -17 4 -17 5 0 6 16 1 17 19 17 239 l-1
237 -18 -40 c-57 -121 -141 -307 -141 -311 0 -3 -14 -36 -31 -72 -17 -37 -42
-95 -56 -129 -14 -35 -30 -63 -37 -63 -6 1 -27 14 -46 30 -68 59 -69 29 0 -44
28 -29 50 -56 50 -59 0 -3 -13 -5 -29 -5 -16 1 -43 -10 -63 -26 -19 -14 -39
-26 -45 -26 -5 0 -15 -11 -22 -24 -7 -13 -36 -41 -64 -62 -45 -34 -82 -76
-141 -158 -26 -36 -50 -33 -92 14 -20 22 -45 40 -55 40 -12 0 -19 7 -19 20 0
11 -4 20 -10 20 -5 0 -10 -8 -10 -17 1 -17 14 -31 65 -68 16 -12 17 -14 4 -15
-9 0 -22 -7 -29 -15 -10 -12 -10 -15 3 -15 16 0 57 -50 57 -70 0 -17 -69 -42
-96 -36 -14 4 -24 2 -24 -4 0 -5 5 -10 10 -10 6 0 10 -4 10 -10 0 -5 -10 -10
-22 -10 -17 0 -19 -3 -10 -12 20 -20 14 -38 -14 -38 -33 0 -99 31 -85 40 19
11 -61 70 -95 70 -14 0 -14 3 -4 15 12 14 15 14 30 0 9 -8 21 -15 27 -15 6 0
13 -5 15 -11 2 -6 13 -9 23 -7 18 4 17 6 -6 16 -15 6 -29 17 -32 25 -3 8 -24
18 -46 22 -23 4 -39 11 -36 16 3 4 -15 19 -41 32 -43 22 -45 25 -29 40 9 9 25
17 36 17 30 0 22 30 -11 41 -32 12 -36 19 -20 35 8 8 -7 8 -47 3 -41 -6 -60
-4 -65 4 -10 16 -10 25 2 32 6 3 10 -1 10 -10 0 -9 5 -15 11 -13 6 2 10 7 10
11 -1 4 -1 16 -1 27 0 11 -7 20 -15 20 -18 0 -19 9 -4 30 8 11 12 12 16 3 2
-7 13 -13 24 -13 17 0 17 3 7 20 -17 26 -3 36 27 20 14 -7 27 -11 30 -8 11 11
-8 37 -38 52 l-32 16 30 -2 c17 -2 36 -9 44 -16 7 -7 27 -16 43 -19 25 -5 29
-10 25 -29 -2 -13 0 -21 4 -18 5 3 9 12 9 20 0 16 26 19 36 3 3 -6 1 -16 -5
-22 -15 -15 -14 -27 4 -27 9 0 15 9 15 21 0 11 5 19 11 17 6 -2 10 -7 10 -11
-2 -9 48 -56 60 -58 5 -1 15 -2 22 -3 6 0 13 -8 13 -16 1 -8 2 -19 3 -24 0 -5
8 -3 16 4 13 10 15 9 15 -10 0 -29 31 -23 45 9 13 29 100 74 132 68 27 -5 59
32 50 56 -8 21 -75 49 -97 42 -15 -5 -20 -2 -20 11 0 13 -3 14 -14 5 -10 -9
-16 -8 -26 4 -6 8 -27 17 -46 21 -19 3 -34 10 -34 15 0 6 -10 8 -22 7 -13 -2
-23 2 -23 7 0 6 3 9 7 8 10 -4 10 11 1 20 -3 4 -12 2 -19 -4 -9 -8 -21 -2 -45
23 -18 18 -30 25 -26 16 7 -21 -21 -34 -29 -13 -4 8 -14 15 -24 15 -10 0 -25
7 -34 15 -8 8 -20 15 -27 15 -7 0 -4 6 7 15 16 12 17 14 2 15 -9 0 -22 2 -30
3 -7 2 -10 2 -5 0 16 -9 6 -24 -12 -18 -11 3 -22 1 -26 -5 -13 -22 -26 -9 -20
20 5 23 3 30 -9 30 -9 0 -16 -7 -16 -15 0 -8 -7 -15 -15 -15 -8 0 -15 -7 -15
-15 0 -8 -4 -15 -10 -15 -5 0 -10 7 -10 15 0 18 -12 19 -27 4 -6 -6 -16 -8
-23 -4 -7 5 -4 12 10 25 27 23 25 34 -6 49 -30 13 -88 5 -105 -15 -13 -16 -29
-18 -29 -4 0 6 7 10 16 10 13 0 14 3 5 14 -9 11 -18 12 -43 2 -24 -8 -32 -8
-35 2 -3 6 -13 12 -23 12 -11 0 -24 12 -32 30 -7 17 -19 30 -25 30 -21 0 -15
17 9 23 14 4 27 -1 40 -15 23 -27 23 -32 -1 -25 -13 3 -18 1 -15 -8 3 -7 15
-16 27 -19 26 -7 67 -7 50 1 -17 6 7 32 24 26 8 -3 13 4 13 20 0 17 7 26 23
31 l22 6 -23 16 c-15 10 -21 22 -17 32 4 11 -2 9 -19 -7 l-24 -23 -20 20 c-23
23 -19 32 15 32 21 0 22 3 13 20 -9 16 -8 20 5 20 8 0 15 7 15 15 0 17 25 20
35 5 3 -5 10 -10 16 -10 5 0 9 5 9 10 0 6 -7 10 -16 10 -10 0 -14 6 -10 15 6
18 -7 19 -36 4 -16 -9 -24 -7 -41 12 l-21 22 22 -5 c15 -4 22 -2 22 8 0 8 -4
14 -10 14 -21 0 -9 30 15 36 14 3 25 10 25 15 0 15 27 10 34 -6 3 -8 12 -15
21 -15 11 0 15 11 15 40 0 32 4 40 18 40 10 0 22 3 26 8 4 4 12 7 17 7 5 0 9
5 10 10 0 6 7 17 15 26 8 9 11 19 7 22 -3 4 2 7 11 7 12 0 16 5 13 14 -3 8 1
17 9 20 8 3 13 2 10 -2 -2 -4 -1 -14 5 -22 7 -13 9 -12 9 3 0 9 7 17 15 17 8
0 15 5 15 10 0 6 -9 10 -20 10 -11 0 -20 7 -20 15 0 8 5 15 10 15 6 0 16 11
22 25 6 14 20 25 31 25 13 0 17 5 13 16 -3 8 -1 24 4 35 17 31 -7 23 -46 -16
-19 -19 -38 -35 -42 -35 -4 0 -16 -11 -26 -25 -10 -14 -25 -25 -32 -25 -8 0
-14 -7 -14 -15 0 -8 -6 -15 -13 -15 -8 0 -22 -9 -32 -20 -10 -11 -31 -20 -47
-20 -16 0 -27 -4 -23 -10 3 -5 13 -7 23 -4 14 5 13 2 -3 -11 -18 -14 -20 -14
-23 -1 -2 9 -7 16 -12 16 -4 0 -6 10 -3 21 5 19 3 20 -18 14 -13 -4 -30 -11
-38 -15 -7 -4 -31 -3 -52 2 -27 7 -36 14 -32 25 4 11 -1 14 -23 12 -16 -1 -41
1 -56 5 -21 6 -41 1 -85 -23 -46 -26 -79 -34 -177 -46 -152 -19 -203 -19 -256
0 -23 8 -59 15 -79 15 -20 0 -88 21 -151 46 -91 35 -125 55 -160 90 -61 60
-89 82 -112 90 -12 3 -17 11 -14 21 4 11 1 13 -14 8 -11 -4 -20 -2 -20 4 0 6
7 11 15 11 20 0 19 9 -4 46 -16 26 -24 31 -45 27 -19 -4 -31 1 -46 18 -29 35
-24 48 5 16 14 -15 32 -27 40 -27 20 0 19 26 0 34 -8 3 -15 12 -15 20 0 18
-30 30 -44 16 -5 -5 -18 -10 -27 -10 -10 0 -19 -5 -21 -12 -3 -7 -9 -8 -19 -2
-8 5 -17 9 -21 9 -18 0 -17 14 1 20 12 3 21 13 21 21 0 8 7 14 15 14 23 0 18
-27 -7 -33 -33 -9 -16 -18 20 -11 22 5 32 12 32 25 0 11 -7 19 -16 19 -11 0
-15 6 -11 20 3 11 4 20 3 20 0 0 -15 -4 -32 -9 -22 -6 -37 -5 -55 6 l-24 14
28 -6 c19 -4 34 0 48 14 21 19 19 41 -4 41 -7 0 -19 9 -27 19 -10 15 -18 17
-30 11 -17 -9 -30 -4 -30 12 0 4 16 8 35 8 41 0 46 16 10 32 -31 14 -32 28 -2
28 20 0 24 5 25 30 1 37 -12 38 -44 3 -19 -20 -27 -24 -36 -15 -8 8 -8 12 -2
12 6 0 16 11 22 25 10 21 9 25 -4 25 -9 0 -14 7 -12 18 2 13 -3 16 -25 14 -17
-2 -35 5 -49 18 -29 27 -46 25 -54 -5 -3 -14 -13 -25 -21 -25 -10 0 -14 -7
-10 -20 6 -25 -27 -36 -65 -21 -22 8 -26 7 -22 -3 6 -16 64 -29 87 -21 20 8
30 -10 13 -24 -10 -8 -28 -4 -75 16 -53 23 -66 25 -83 14 -17 -11 -20 -9 -25
8 -3 12 -9 21 -13 21 -4 0 -7 8 -6 18 1 12 -6 17 -25 17 -14 0 -32 5 -40 12
-8 6 -28 17 -44 24 l-30 12 25 7 c15 4 31 2 40 -6 25 -20 107 -29 123 -12 18
18 3 41 -32 53 -21 6 -22 8 -7 23 14 15 18 14 42 -9 25 -23 26 -23 39 -6 8 11
11 26 8 35 -4 10 -2 13 5 8 7 -4 12 -3 12 3 0 20 -17 20 -38 1 -29 -27 -35
-25 -27 10 4 19 3 30 -4 30 -6 0 -11 -7 -11 -16 0 -11 -6 -8 -22 10 -25 26
-77 48 -63 26 5 -8 3 -11 -6 -8 -8 3 -14 13 -14 23 0 26 -25 31 -32 6 -7 -29
-21 -27 -16 3 4 19 0 24 -21 28 -26 5 -35 -5 -16 -17 17 -10 11 -25 -10 -25
-11 0 -20 5 -20 10 0 6 -7 10 -15 10 -8 0 -15 5 -15 10 0 6 -9 10 -20 10 -10
0 -23 6 -27 13 -4 8 -17 17 -28 20 -17 6 -18 5 -5 -6 22 -18 42 -57 30 -57 -5
0 -10 4 -10 8 0 10 -76 15 -103 6 -18 -6 -18 -6 1 -20 11 -8 29 -12 39 -9 11
3 9 1 -4 -6 -13 -7 -23 -18 -23 -26 0 -8 -4 -11 -10 -8 -5 3 -10 -1 -10 -10 0
-20 28 -31 43 -16 6 6 20 11 31 11 18 -1 19 -2 4 -10 -31 -19 5 -67 57 -76 6
-1 15 -3 20 -4 6 -1 13 -2 18 -1 14 2 7 -20 -8 -25 -29 -11 -15 -25 18 -19 32
6 34 5 34 -24 0 -36 -20 -41 -39 -11 -16 24 -44 26 -66 3 -16 -16 -17 -15 -20
4 -4 29 -33 39 -49 17 -11 -16 -13 -16 -19 -1 -3 9 -10 15 -14 12 -5 -3 -11
-1 -15 5 -12 19 -45 11 -45 -10 0 -11 -4 -20 -10 -20 -5 0 -10 -4 -10 -10 0
-5 5 -10 11 -10 15 0 69 -39 69 -51 0 -5 -7 -6 -17 0 -50 25 -95 41 -103 36
-11 -7 -50 34 -50 52 0 8 5 11 12 7 6 -4 8 -3 4 4 -3 5 -24 13 -46 17 -22 4
-38 10 -35 15 5 8 -36 22 -44 15 -2 -3 3 -13 12 -23 25 -27 21 -34 -15 -27
-54 10 -138 39 -138 47 0 4 -12 8 -26 8 -14 0 -23 4 -19 10 4 6 -5 10 -20 10
-30 0 -57 15 -98 53 -28 25 -28 27 -8 27 28 0 28 30 -2 58 -25 24 -42 28 -52
12 -3 -6 5 -14 20 -20 22 -8 24 -12 13 -29 -7 -11 -24 -21 -38 -23 -21 -3 -25
-9 -28 -38 -1 -19 -7 -44 -13 -56 -6 -11 -9 -24 -8 -30 1 -5 -3 -22 -9 -37 -7
-16 -12 -33 -12 -38 0 -5 -4 -9 -10 -9 -5 0 -10 -6 -10 -13 0 -7 -7 -22 -15
-33 -12 -16 -12 -11 2 31 9 28 20 56 26 62 5 7 7 19 3 28 -3 8 4 43 15 77 24
77 44 200 36 222 -8 21 -44 20 -79 -2z m1132 -184 c0 -11 -8 -10 -31 3 -11 5
-17 14 -14 19 6 10 45 -9 45 -22z m-73 -6 c-10 -2 -26 -1 -35 3 -14 5 -14 8
-2 15 8 5 22 4 34 -3 19 -10 20 -11 3 -15z m-97 -28 c0 -2 -11 -4 -25 -4 -14
0 -25 4 -25 9 0 4 11 6 25 3 14 -2 25 -6 25 -8z m-82 -14 c7 -11 9 -20 4 -20
-10 0 -32 22 -32 32 0 15 15 8 28 -12z m222 4 c0 -7 -40 -44 -46 -44 -4 0 -1
7 6 15 10 12 9 16 -4 21 -27 10 -18 21 14 16 17 -2 30 -6 30 -8z m-130 -24 c0
-5 -4 -10 -10 -10 -5 0 -10 5 -10 10 0 6 5 10 10 10 6 0 10 -4 10 -10z m165
-30 c-3 -5 -10 -10 -16 -10 -5 0 -9 5 -9 10 0 6 7 10 16 10 8 0 12 -4 9 -10z
m-145 -30 c0 -5 -5 -10 -11 -10 -5 0 -7 5 -4 10 3 6 8 10 11 10 2 0 4 -4 4
-10z m-450 -10 c8 -5 12 -12 9 -15 -8 -8 -39 5 -39 16 0 11 11 11 30 -1z m271
-45 c0 -5 -9 -11 -21 -13 -15 -3 -18 1 -14 13 7 17 35 17 35 0z m104 -5 c3 -5
-1 -10 -9 -10 -9 0 -16 5 -16 10 0 6 4 10 9 10 6 0 13 -4 16 -10z m460 0 c3
-5 2 -10 -4 -10 -5 0 -13 5 -16 10 -3 6 -2 10 4 10 5 0 13 -4 16 -10z m-270
-10 c-3 -5 -11 -10 -16 -10 -6 0 -7 5 -4 10 3 6 11 10 16 10 6 0 7 -4 4 -10z
m-4097 -37 c17 -9 32 -21 32 -29 0 -16 -36 -37 -50 -29 -5 3 -11 1 -15 -5 -9
-14 -97 -51 -109 -46 -6 2 -3 5 7 5 9 1 17 5 17 10 0 5 14 14 30 21 51 21 35
59 -29 67 -77 10 -37 33 44 25 22 -3 55 -11 73 -19z m4402 13 c0 -18 -27 -29
-36 -14 -4 5 0 14 7 19 20 13 29 11 29 -5z m-2170 -4 c0 -11 -46 -32 -54 -25
-3 3 -1 12 5 20 13 14 49 18 49 5z m1565 -12 c10 -11 15 -23 11 -27 -4 -5 -12
0 -17 10 -6 9 -17 17 -24 17 -8 0 -15 5 -15 10 0 17 26 11 45 -10z m245 5 c0
-8 -6 -15 -14 -15 -17 0 -28 14 -19 24 12 12 33 6 33 -9z m85 -5 c3 -5 -3 -10
-15 -10 -12 0 -18 5 -15 10 3 6 10 10 15 10 5 0 12 -4 15 -10z m-270 -49 c-7
-6 -35 27 -35 41 0 7 9 2 20 -12 10 -14 17 -26 15 -29z m396 20 l46 -13 -22
-24 c-28 -30 -60 -33 -52 -4 3 11 1 20 -4 20 -5 0 -9 -13 -9 -29 0 -25 3 -28
23 -24 l22 6 -23 -22 c-22 -22 -62 -22 -62 0 0 5 -9 9 -19 9 -23 0 -36 16 -21
25 6 4 18 1 26 -6 12 -10 18 -9 30 3 14 13 12 16 -15 28 -41 17 -40 34 1 26
25 -5 30 -4 20 6 -16 16 -16 33 1 21 6 -6 33 -16 58 -22z m-171 9 c0 -5 -4
-10 -10 -10 -5 0 -10 5 -10 10 0 6 5 10 10 10 6 0 10 -4 10 -10z m256 -25 c7
-16 -23 -51 -34 -41 -3 4 0 11 7 16 8 4 11 15 8 24 -4 9 -2 16 4 16 5 0 12 -7
15 -15z m-421 -15 c3 -5 -1 -10 -9 -10 -8 0 -18 5 -21 10 -3 6 1 10 9 10 8 0
18 -4 21 -10z m-1681 -83 c39 -34 91 -78 116 -97 25 -19 54 -43 65 -52 11 -10
61 -43 110 -74 50 -31 97 -65 105 -76 8 -11 29 -37 46 -57 17 -20 39 -50 48
-68 15 -30 15 -35 -3 -85 -11 -29 -25 -74 -32 -100 -6 -27 -13 -48 -16 -48 -2
0 -25 17 -51 38 -26 21 -112 81 -192 132 -80 52 -206 140 -280 195 -74 56
-147 109 -163 118 l-27 17 29 33 c43 46 121 146 121 153 0 3 -7 4 -15 0 -8 -3
-15 -2 -15 2 0 7 48 26 74 31 5 0 41 -27 80 -62z m-191 36 c-7 -2 -19 -2 -25
0 -7 3 -2 5 12 5 14 0 19 -2 13 -5z m1947 -3 c8 -5 11 -10 5 -10 -5 0 -17 5
-25 10 -8 5 -10 10 -5 10 6 0 17 -5 25 -10z m-2935 -20 c-3 -6 -35 -10 -71
-10 -85 0 -76 14 11 17 40 2 64 -1 60 -7z m88 3 c-7 -2 -21 -2 -30 0 -10 3 -4
5 12 5 17 0 24 -2 18 -5z m177 3 c0 -11 -19 -15 -25 -6 -3 5 1 10 9 10 9 0 16
-2 16 -4z m2835 -6 c3 -5 1 -10 -4 -10 -6 0 -11 5 -11 10 0 6 2 10 4 10 3 0 8
-4 11 -10z m109 -15 c-17 -26 -26 -30 -37 -18 -9 9 23 43 40 43 11 0 10 -5 -3
-25z m65 -25 c5 0 12 -21 16 -46 3 -26 9 -53 12 -60 3 -9 -2 -14 -16 -14 -12
0 -21 5 -21 10 0 6 -11 10 -25 10 -18 0 -25 5 -25 20 0 11 -7 23 -15 26 -12 5
-13 10 -4 20 6 8 9 14 6 14 -3 0 6 12 21 28 24 24 28 25 34 10 4 -10 11 -18
17 -18z m115 17 c3 3 6 -3 6 -15 0 -23 -14 -29 -25 -12 -3 6 -15 10 -27 10
-17 0 -18 3 -8 15 9 10 17 12 30 5 9 -5 20 -6 24 -3z m-364 -18 c0 -5 -11 -9
-25 -9 -26 0 -34 15 -12 23 16 5 37 -3 37 -14z m94 -11 c-5 -8 2 -9 24 -5 39
8 42 0 6 -14 -36 -13 -69 -3 -53 17 14 17 33 19 23 2z m-2757 -4 c-3 -3 -12
-4 -19 -1 -8 3 -5 6 6 6 11 1 17 -2 13 -5z m2683 -19 c10 -12 10 -15 -4 -15
-9 0 -16 7 -16 15 0 8 2 15 4 15 2 0 9 -7 16 -15z m364 -4 c4 -5 -3 -7 -14 -4
-23 6 -26 13 -6 13 8 0 17 -4 20 -9z m-3144 -12 c0 -6 7 -8 16 -5 10 4 14 1
12 -6 -3 -9 -31 -13 -89 -15 -75 -1 -79 0 -35 7 27 5 54 14 59 19 14 14 37 14
37 0z m-152 -24 c3 -2 -25 -4 -62 -3 -62 2 -87 12 -48 20 18 4 102 -9 110 -17z
m-558 5 c0 -5 -7 -10 -15 -10 -8 0 -15 5 -15 10 0 6 7 10 15 10 8 0 15 -4 15
-10z m380 0 c0 -5 -9 -10 -19 -10 -11 0 -23 5 -26 10 -4 6 5 10 19 10 14 0 26
-4 26 -10z m3237 -17 c-9 -9 -19 -14 -23 -11 -10 10 6 28 24 28 15 0 15 -1 -1
-17z m-171 -37 c-18 -27 -86 -23 -86 5 0 6 4 8 9 4 5 -3 12 -1 15 4 3 5 22 9
41 8 33 -1 34 -2 21 -21z m154 14 c9 -5 19 -5 27 2 10 8 13 6 13 -5 0 -20 -29
-30 -47 -16 -11 10 -18 7 -34 -9 -24 -27 -30 -28 -22 -4 14 40 34 51 63 32z
m210 6 c0 -3 -4 -8 -10 -11 -5 -3 -10 -1 -10 4 0 6 5 11 10 11 6 0 10 -2 10
-4z m-140 -47 c0 -6 -4 -7 -10 -4 -5 3 -10 11 -10 16 0 6 5 7 10 4 6 -3 10
-11 10 -16z m240 1 c0 -5 -2 -10 -4 -10 -3 0 -8 5 -11 10 -3 6 -1 10 4 10 6 0
11 -4 11 -10z m-1532 -28 c2 -7 -6 -12 -17 -12 -21 0 -27 11 -14 24 9 9 26 2
31 -12z m1082 3 c0 -9 -9 -15 -21 -15 -18 0 -19 2 -9 15 7 8 16 15 21 15 5 0
9 -7 9 -15z m280 -5 c-20 -13 -33 -13 -25 0 3 6 14 10 23 10 15 0 15 -2 2 -10z
m235 0 c3 -5 -1 -10 -10 -10 -9 0 -13 5 -10 10 3 6 8 10 10 10 2 0 7 -4 10
-10z m-315 -20 c0 -5 -4 -10 -9 -10 -6 0 -13 5 -16 10 -3 6 1 10 9 10 9 0 16
-4 16 -10z m-540 -10 c0 -5 -4 -10 -10 -10 -5 0 -10 5 -10 10 0 6 5 10 10 10
6 0 10 -4 10 -10z m-772 -8 c13 -1 22 -9 22 -18 0 -11 -5 -14 -16 -10 -18 7
-47 -11 -39 -24 7 -11 -74 -90 -92 -90 -8 0 -13 -8 -11 -18 4 -26 -20 -52 -48
-52 -31 0 -30 8 11 90 26 51 41 70 55 70 21 0 28 24 10 35 -29 18 8 23 108 17z
m1582 -22 c0 -5 -9 -10 -20 -10 -11 0 -20 5 -20 10 0 6 9 10 20 10 11 0 20 -4
20 -10z m-3120 -10 c0 -5 -5 -10 -11 -10 -5 0 -7 5 -4 10 3 6 8 10 11 10 2 0
4 -4 4 -10z m2760 0 c0 -5 -7 -10 -15 -10 -8 0 -15 5 -15 10 0 6 7 10 15 10 8
0 15 -4 15 -10z m-184 -35 c-9 -9 -16 -13 -16 -8 0 12 22 34 28 28 2 -2 -3
-11 -12 -20z m104 16 c0 -15 -33 -22 -44 -10 -8 9 -8 10 1 5 6 -3 14 -2 18 4
8 12 25 13 25 1z m262 -33 c17 -17 17 -18 -2 -18 -10 0 -24 9 -31 21 -7 14
-17 19 -30 15 -10 -3 -28 -9 -39 -12 -12 -4 -20 -2 -20 5 0 6 15 14 33 19 34
9 55 2 89 -30z m298 35 c-8 -3 -18 -12 -23 -19 -4 -7 -15 -11 -25 -8 -44 15
-46 18 -12 24 44 9 81 11 60 3z m-784 -40 c-10 -10 -19 5 -10 18 6 11 8 11 12
0 2 -7 1 -15 -2 -18z m284 12 c10 -12 10 -15 -4 -15 -9 0 -16 7 -16 15 0 8 2
15 4 15 2 0 9 -7 16 -15z m561 -5 c27 -22 22 -25 -15 -10 -14 5 -26 14 -26 20
0 16 15 12 41 -10z m-96 -40 c3 -6 -1 -7 -9 -4 -18 7 -21 14 -7 14 6 0 13 -4
16 -10z m-3228 -6 c-3 -3 -12 -4 -19 -1 -8 3 -5 6 6 6 11 1 17 -2 13 -5z m93
-3 c0 -6 -4 -13 -10 -16 -5 -3 -10 1 -10 9 0 9 5 16 10 16 6 0 10 -4 10 -9z
m2600 -11 c0 -5 -3 -10 -7 -10 -5 0 -18 -3 -30 -6 -13 -4 -23 -2 -23 4 0 9 9
13 53 21 4 0 7 -3 7 -9z m107 -6 c-3 -3 -12 -4 -19 -1 -8 3 -5 6 6 6 11 1 17
-2 13 -5z m-4233 -19 c-22 -16 -60 -20 -69 -6 -3 6 12 12 32 14 21 2 42 4 47
5 6 1 1 -5 -10 -13z m4296 -5 c0 -5 -9 -10 -20 -10 -11 0 -20 5 -20 10 0 6 9
10 20 10 11 0 20 -4 20 -10z m-3110 -21 l35 -1 -45 -12 c-39 -11 -42 -14 -20
-18 14 -3 -27 -6 -90 -6 -63 0 -109 2 -102 5 6 2 12 14 12 25 0 14 5 18 18 15
51 -14 89 -15 112 -2 15 8 29 10 35 4 5 -5 25 -9 45 -10z m3170 -3 c0 -2 -11
-6 -25 -8 -13 -3 -22 -1 -19 3 5 9 44 13 44 5z m-3413 -21 c0 -9 -10 -15 -23
-15 -17 0 -22 4 -18 15 4 8 14 15 23 15 10 0 18 -7 18 -15z m3023 5 c0 -5 -4
-10 -10 -10 -5 0 -10 5 -10 10 0 6 5 10 10 10 6 0 10 -4 10 -10z m410 -10 c0
-5 -4 -10 -10 -10 -5 0 -10 5 -10 10 0 6 5 10 10 10 6 0 10 -4 10 -10z m-3532
-7 c-16 -2 -40 -2 -55 0 -16 2 -3 4 27 4 30 0 43 -2 28 -4z m3147 -93 c3 -5
-1 -10 -9 -10 -9 0 -16 5 -16 10 0 6 4 10 9 10 6 0 13 -4 16 -10z m-2460 -31
c-7 -10 -153 -5 -163 6 -4 4 14 5 41 2 26 -4 47 -3 47 1 0 4 18 6 40 4 22 -2
38 -8 35 -13z m-915 1 c0 -5 -10 -10 -22 -9 -22 0 -22 1 -3 9 11 5 21 9 23 9
1 1 2 -3 2 -9z m-622 -7 c-10 -2 -18 -9 -18 -15 0 -6 -3 -9 -6 -5 -10 10 6 27
24 26 15 -1 15 -2 0 -6z m292 3 c0 -2 -6 -15 -13 -28 -10 -20 -15 -23 -25 -12
-15 17 -15 31 1 37 15 7 37 8 37 3z m130 -6 c0 -5 7 -10 15 -10 21 0 19 -17
-4 -29 -16 -9 -18 -8 -14 9 4 16 0 20 -18 21 -13 0 -33 4 -44 9 -15 7 -10 9
23 9 23 1 42 -3 42 -9z m73 3 c-7 -2 -19 -2 -25 0 -7 3 -2 5 12 5 14 0 19 -2
13 -5z m295 -10 c2 -8 -5 -13 -15 -13 -11 0 -20 7 -20 15 0 18 28 16 35 -2z
m-113 -3 c3 -5 1 -10 -4 -10 -6 0 -11 5 -11 10 0 6 2 10 4 10 3 0 8 -4 11 -10z
m3548 3 c-7 -2 -19 -2 -25 0 -7 3 -2 5 12 5 14 0 19 -2 13 -5z m-3853 -12 c0
-5 -7 -14 -15 -21 -13 -10 -15 -9 -15 9 0 12 6 21 15 21 8 0 15 -4 15 -9z
m1030 0 c0 -6 -4 -13 -10 -16 -5 -3 -10 1 -10 9 0 9 5 16 10 16 6 0 10 -4 10
-9z m140 -6 c0 -8 9 -24 20 -35 l20 -20 -20 0 c-13 0 -20 7 -20 20 0 17 -7 20
-45 20 -35 0 -43 3 -39 15 4 10 20 15 45 15 28 0 39 -4 39 -15z m2490 5 c0 -5
-8 -10 -17 -10 -15 0 -16 2 -3 10 19 12 20 12 20 0z m-3953 -6 c-3 -3 -12 -4
-19 -1 -8 3 -5 6 6 6 11 1 17 -2 13 -5z m843 -35 c0 -5 -4 -9 -10 -9 -5 0 -10
7 -10 16 0 8 5 12 10 9 6 -3 10 -10 10 -16z m101 -9 c12 7 19 7 19 1 0 -5 10
-12 23 -14 13 -3 9 -5 -13 -5 -55 1 -72 -1 -66 -11 3 -4 -6 -6 -19 -3 -14 2
-25 8 -25 12 0 5 9 6 20 3 16 -4 20 0 20 18 1 21 2 22 11 6 8 -13 14 -15 30
-7z m84 10 c4 -6 -5 -10 -19 -10 -14 0 -26 5 -26 10 0 6 9 10 19 10 11 0 23
-4 26 -10z m95 -5 c0 -8 -9 -15 -20 -15 -11 0 -20 7 -20 15 0 8 9 15 20 15 11
0 20 -7 20 -15z m173 8 c-7 -2 -19 -2 -25 0 -7 3 -2 5 12 5 14 0 19 -2 13 -5z
m-983 -18 c0 -8 -7 -15 -15 -15 -16 0 -20 12 -8 23 11 12 23 8 23 -8z m902 -5
c7 -11 19 -20 27 -20 12 0 12 -3 3 -12 -9 -9 -15 -10 -20 -2 -6 10 -44 22 -79
26 -6 1 -9 7 -6 15 8 21 61 16 75 -7z m145 4 c-3 -3 -12 -4 -19 -1 -8 3 -5 6
6 6 11 1 17 -2 13 -5z m-586 -24 c10 0 19 -4 19 -10 0 -5 -6 -10 -13 -10 -16
0 -37 20 -36 35 0 5 3 4 6 -2 2 -7 13 -13 24 -13z m679 3 c24 -21 26 -33 5
-33 -8 0 -15 7 -15 15 0 8 -4 15 -10 15 -5 0 -10 -4 -10 -10 0 -17 -19 -11
-30 10 -9 18 -8 20 15 20 13 0 34 -8 45 -17z m-846 -24 c-3 -5 -14 -9 -25 -9
-16 0 -18 2 -7 14 14 14 42 10 32 -5z m376 11 c0 -5 -8 -10 -17 -10 -15 0 -16
2 -3 10 19 12 20 12 20 0z m92 -8 c-24 -8 -11 -22 19 -22 18 0 28 -4 24 -10
-4 -7 -39 -8 -98 -4 -102 7 -142 24 -58 24 37 0 50 3 45 12 -5 8 2 9 24 5 20
-4 32 -2 32 4 0 6 5 7 12 3 9 -6 9 -9 0 -12z m2748 8 c0 -6 10 -15 23 -21 21
-9 21 -9 -3 -4 -14 2 -31 5 -37 5 -7 0 -13 7 -13 15 0 8 7 15 15 15 8 0 15 -5
15 -10z m-3423 -6 c-3 -3 -12 -4 -19 -1 -8 3 -5 6 6 6 11 1 17 -2 13 -5z m75
-6 c-9 -9 -15 -9 -24 0 -9 9 -7 12 12 12 19 0 21 -3 12 -12z m228 2 c0 -5 -9
-10 -20 -10 -11 0 -20 5 -20 10 0 6 9 10 20 10 11 0 20 -4 20 -10z m-420 -10
c0 -5 -4 -10 -10 -10 -5 0 -10 5 -10 10 0 6 5 10 10 10 6 0 10 -4 10 -10z
m620 -10 c0 -5 -4 -10 -9 -10 -6 0 -13 5 -16 10 -3 6 1 10 9 10 9 0 16 -4 16
-10z m-990 -10 c0 -5 -4 -10 -10 -10 -5 0 -10 5 -10 10 0 6 5 10 10 10 6 0 10
-4 10 -10z m193 -4 c4 -10 0 -12 -15 -8 -15 4 -17 7 -6 13 17 11 15 11 21 -5z
m1097 4 c11 -7 5 -10 -22 -10 -21 0 -38 5 -38 10 0 13 40 13 60 0z m238 -6
c-4 -19 -103 -31 -113 -14 -4 6 13 10 44 10 28 0 51 5 51 10 0 6 5 10 11 10 6
0 9 -7 7 -16z m-158 -4 c24 -8 24 -8 -5 -9 -16 0 -37 4 -45 9 -12 8 -11 10 5
9 11 -1 31 -5 45 -9z m-888 -22 c-9 -9 -15 -9 -24 0 -9 9 -7 12 12 12 19 0 21
-3 12 -12z m708 2 c0 -5 -4 -10 -10 -10 -5 0 -10 5 -10 10 0 6 5 10 10 10 6 0
10 -4 10 -10z m2837 -16 c-3 -3 -12 -4 -19 -1 -8 3 -5 6 6 6 11 1 17 -2 13 -5z
m-2577 -14 c-13 -8 -13 -10 2 -10 9 0 19 -4 22 -8 2 -4 -10 -6 -28 -4 -40 5
-45 32 -7 32 21 0 23 -2 11 -10z m4480 -10 c0 -5 -4 -10 -10 -10 -5 0 -10 5
-10 10 0 6 5 10 10 10 6 0 10 -4 10 -10z m-5487 -17 c-7 -2 -19 -2 -25 0 -7 3
-2 5 12 5 14 0 19 -2 13 -5z m904 -9 c-3 -3 -12 -4 -19 -1 -8 3 -5 6 6 6 11 1
17 -2 13 -5z m58 -4 c3 -5 2 -10 -4 -10 -5 0 -13 5 -16 10 -3 6 -2 10 4 10 5
0 13 -4 16 -10z m4585 -15 c0 -17 -2 -18 -24 -9 -23 9 -20 24 4 24 11 0 20 -7
20 -15z m-4487 -43 c-3 -45 2 -49 29 -28 13 10 15 15 6 24 -18 18 -2 15 45 -9
23 -11 76 -34 117 -51 87 -34 328 -154 392 -194 63 -39 212 -146 220 -159 13
-18 9 -23 -13 -18 -19 5 -21 3 -17 -29 3 -26 0 -34 -9 -31 -7 3 -18 -6 -24
-20 -7 -15 -17 -23 -25 -20 -16 6 -19 -13 -4 -22 12 -7 -5 -51 -19 -48 -6 2
-13 -8 -17 -22 -3 -14 -10 -25 -15 -25 -5 0 -9 -6 -9 -14 0 -8 -15 -16 -37
-19 -32 -4 -47 1 -91 32 -155 107 -294 175 -552 271 -47 18 -105 43 -130 56
-25 13 -53 24 -63 24 -27 0 -31 27 -8 56 12 15 21 31 21 36 0 5 9 19 21 31 19
20 35 50 38 70 0 4 13 19 28 32 22 19 25 27 15 33 -11 7 -9 10 7 15 12 3 24
13 28 24 10 27 36 52 53 50 11 -2 14 -14 13 -45z m2377 18 c0 -13 -20 -13 -40
0 -12 8 -9 10 13 10 15 0 27 -4 27 -10z m-2690 -20 c24 -8 24 -8 -5 -9 -16 0
-37 4 -45 9 -12 8 -11 10 5 9 11 -1 31 -5 45 -9z m130 -20 c0 -13 -20 -13 -40
0 -12 8 -9 10 13 10 15 0 27 -4 27 -10z m45 0 c3 -5 -1 -10 -10 -10 -9 0 -13
5 -10 10 3 6 8 10 10 10 2 0 7 -4 10 -10z m-294 -31 c56 -18 79 -31 79 -47 0
-11 -3 -12 -13 -4 -7 6 -35 18 -62 27 -54 18 -79 35 -53 35 8 0 30 -5 49 -11z
m208 -12 c8 -11 5 -13 -19 -9 -17 2 -30 8 -30 13 0 14 36 11 49 -4z m58 -23
c-3 -3 -12 -4 -19 -1 -8 3 -5 6 6 6 11 1 17 -2 13 -5z m-423 -10 c9 -3 16 -10
16 -14 0 -12 -78 -60 -99 -60 -10 0 -24 -7 -31 -15 -7 -8 -21 -15 -32 -15 -28
0 -6 19 65 54 46 23 55 31 46 42 -9 11 -8 14 4 14 8 0 22 -3 31 -6z m296 -30
c0 -8 -6 -14 -14 -14 -18 0 -29 27 -13 33 16 6 27 -1 27 -19z m-795 -4 c3 -5
-3 -10 -14 -10 -12 0 -21 -7 -21 -15 0 -8 -7 -15 -15 -15 -20 0 -19 9 3 31 19
20 38 24 47 9z m3792 -16 c-9 -9 -28 6 -21 18 4 6 10 6 17 -1 6 -6 8 -13 4
-17z m-3621 -19 c-11 -8 -25 -15 -32 -15 -7 0 -19 -3 -28 -6 -9 -3 -16 -1 -16
5 0 6 9 11 19 11 11 0 23 5 26 10 3 6 16 10 28 10 22 -1 22 -1 3 -15z m-266
-15 c-8 -5 -24 -9 -35 -9 l-20 0 20 9 c11 5 27 9 35 9 13 1 13 0 0 -9z m5690
-5 c0 -8 9 -15 20 -15 11 0 20 -7 20 -15 0 -8 -4 -15 -9 -15 -16 0 -61 41 -56
51 9 14 25 11 25 -6z m-4890 -4 c0 -5 -16 -12 -36 -15 -19 -4 -43 -10 -52 -13
-12 -4 -14 -3 -7 5 6 6 28 16 50 21 22 5 41 9 43 10 1 1 2 -3 2 -8z m-640 -5
c0 -3 -4 -8 -10 -11 -5 -3 -10 -1 -10 4 0 6 5 11 10 11 6 0 10 -2 10 -4z
m5435 -56 c3 -5 2 -10 -4 -10 -5 0 -13 5 -16 10 -3 6 -2 10 4 10 5 0 13 -4 16
-10z m215 -30 c-9 -16 -15 -19 -23 -11 -8 8 -6 15 9 25 24 18 29 14 14 -14z
m230 10 c16 -16 17 -20 5 -20 -8 0 -15 4 -15 10 0 5 -7 7 -15 4 -8 -3 -20 -2
-26 2 -11 6 0 15 29 23 1 1 11 -8 22 -19z m1070 0 c0 -5 -4 -10 -10 -10 -5 0
-10 5 -10 10 0 6 5 10 10 10 6 0 10 -4 10 -10z m-4650 -163 c146 -73 315 -156
375 -184 61 -28 168 -79 239 -112 70 -34 130 -61 132 -61 2 0 252 -124 556
-275 304 -152 681 -334 838 -406 157 -73 364 -169 460 -214 284 -134 342 -161
400 -186 99 -42 270 -130 270 -138 0 -4 -12 -18 -26 -32 -14 -13 -51 -59 -81
-102 -31 -43 -61 -81 -68 -83 -16 -6 -162 60 -520 238 -149 73 -292 143 -320
155 -117 50 -486 228 -995 480 -300 149 -648 319 -775 378 -126 59 -376 182
-554 271 -179 90 -330 164 -337 164 -26 0 -19 30 34 138 53 107 57 113 81 107
14 -3 145 -66 291 -138z m3230 129 c0 -3 -4 -8 -10 -11 -5 -3 -10 -1 -10 4 0
6 5 11 10 11 6 0 10 -2 10 -4z m223 -20 c7 -18 -34 -30 -45 -13 -12 19 -10 22
16 25 13 1 26 -5 29 -12z m-76 -2 c-3 -3 -12 -4 -19 -1 -8 3 -5 6 6 6 11 1 17
-2 13 -5z m-167 -14 c0 -5 7 -10 16 -10 8 0 12 -4 9 -10 -4 -6 -13 -5 -25 3
-21 13 -26 27 -10 27 6 0 10 -4 10 -10z m-70 -20 c0 -5 -4 -10 -10 -10 -5 0
-10 5 -10 10 0 6 5 10 10 10 6 0 10 -4 10 -10z m430 1 c0 -10 -30 -24 -37 -17
-3 3 -2 9 2 15 8 13 35 15 35 2z m-240 -11 c0 -5 -7 -10 -15 -10 -8 0 -15 5
-15 10 0 6 7 10 15 10 8 0 15 -4 15 -10z m112 -30 c28 -13 42 -35 33 -51 -11
-17 -105 11 -105 31 0 15 30 12 47 -5 8 -8 19 -12 25 -9 18 12 -11 28 -54 30
-55 3 -58 4 -28 14 30 9 47 7 82 -10z m-232 0 c0 -5 7 -10 15 -10 8 0 15 -4
15 -10 0 -13 -17 -13 -25 0 -3 6 -18 7 -32 3 -24 -5 -25 -4 -12 10 16 18 39
22 39 7z m117 -16 c-3 -3 -12 -4 -19 -1 -8 3 -5 6 6 6 11 1 17 -2 13 -5z
m-314 -28 c4 -10 1 -13 -8 -9 -8 3 -12 9 -9 14 7 12 11 11 17 -5z m350 -16
c14 -11 32 -20 40 -20 9 0 19 -5 23 -11 4 -7 -4 -10 -23 -8 -16 2 -42 -4 -57
-14 -24 -16 -27 -16 -33 -2 -4 12 -13 15 -29 11 -14 -4 -24 -2 -24 4 0 6 -5 8
-12 4 -7 -4 -8 -3 -4 5 8 13 67 5 76 -10 3 -4 12 -4 20 1 10 7 11 10 3 10 -7
0 -13 7 -13 15 0 8 -6 15 -14 15 -8 0 -18 5 -21 10 -11 18 42 10 68 -10z
m1082 -12 c2 -13 6 -39 7 -58 3 -31 6 -35 28 -33 14 1 18 0 8 -3 -20 -6 -24
-34 -7 -51 8 -8 7 -17 -3 -32 -9 -12 -13 -33 -10 -46 3 -20 10 -25 36 -25 38
0 76 -23 57 -34 -7 -5 -15 -5 -18 -2 -3 3 -12 1 -20 -5 -10 -9 -13 -7 -13 10
0 37 -17 22 -25 -21 l-8 -43 -8 38 c-5 21 -16 45 -24 54 -11 11 -13 19 -6 27
14 16 -8 63 -30 69 -9 3 -20 19 -24 36 -4 17 -13 31 -20 31 -8 0 -18 7 -23 16
-12 22 16 74 40 74 9 0 20 5 23 10 11 18 35 11 40 -12z m-1290 -8 c3 -5 -3
-10 -15 -10 -12 0 -18 5 -15 10 3 6 10 10 15 10 5 0 12 -4 15 -10z m65 -30 c0
-5 -4 -10 -9 -10 -6 0 -13 5 -16 10 -3 6 1 10 9 10 9 0 16 -4 16 -10z m202
-42 c-2 -11 -8 -16 -11 -11 -3 5 -14 12 -24 16 -26 10 -12 25 17 20 18 -4 22
-10 18 -25z m-239 -4 c4 -23 3 -24 -10 -11 -9 8 -12 20 -9 26 10 16 13 14 19
-15z m113 1 c-7 -29 8 -33 24 -7 8 13 9 11 4 -13 -4 -16 -8 -31 -9 -33 -5 -6
-55 18 -55 28 0 5 -8 10 -18 10 -10 0 -27 7 -38 16 -18 15 -17 15 17 11 20 -3
42 -1 50 4 24 15 31 10 25 -16z m-5336 -36 c-25 -4 -214 -7 -420 -6 -365 1
-368 2 -125 7 397 9 596 9 545 -1z m189 7 c-7 -8 -118 -10 -126 -3 -3 4 24 7
62 7 38 0 66 -2 64 -4z m119 -3 c-15 -2 -42 -2 -60 0 -18 2 -6 4 27 4 33 0 48
-2 33 -4z m4847 -3 c3 -5 2 -10 -4 -10 -5 0 -13 5 -16 10 -3 6 -2 10 4 10 5 0
13 -4 16 -10z m252 -16 c-3 -4 -14 -3 -24 0 -15 6 -15 8 -3 16 16 10 39 -4 27
-16z m-97 -1 c2 -2 -2 -8 -10 -13 -8 -5 -11 -12 -7 -16 4 -4 13 -2 19 4 17 17
31 15 25 -3 -7 -17 9 -30 18 -15 3 5 11 10 16 10 6 0 8 -4 5 -9 -3 -5 1 -11 9
-15 8 -3 15 -10 15 -16 0 -7 -7 -7 -22 1 -16 9 -23 9 -26 0 -5 -14 -39 -15
-47 -1 -3 6 -17 10 -29 10 -13 0 -29 7 -36 15 -10 13 -9 15 10 15 22 0 22 1 7
18 -10 10 -17 22 -17 26 0 7 60 -2 70 -11z m-360 -3 c0 -5 -4 -10 -9 -10 -6 0
-13 5 -16 10 -3 6 1 10 9 10 9 0 16 -4 16 -10z m269 -18 c0 -11 -3 -12 -6 -4
-7 17 -23 15 -23 -4 0 -16 -21 -15 -27 2 -3 10 38 32 50 27 4 -3 7 -12 6 -21z
m-5014 9 c-26 -11 -266 -31 -359 -31 -130 1 -46 20 126 29 225 11 257 12 233
2z m88 2 c-7 -2 -21 -2 -30 0 -10 3 -4 5 12 5 17 0 24 -2 18 -5z m5217 -2 c0
-5 6 -16 14 -24 8 -7 11 -19 7 -25 -10 -17 -56 22 -48 42 7 17 27 22 27 7z
m-5850 -21 c0 -5 -11 -10 -25 -10 -14 0 -25 5 -25 10 0 6 11 10 25 10 14 0 25
-4 25 -10z m108 -5 c10 -10 -3 -12 -40 -7 -21 2 -38 9 -38 14 0 11 67 5 78 -7z
m5697 -13 c-6 -7 -55 11 -50 18 3 5 16 3 29 -3 14 -7 23 -13 21 -15z m185 14
c0 -2 -7 -7 -16 -10 -8 -3 -12 -2 -9 4 6 10 25 14 25 6z m-66 -29 c-5 -14 -44
-41 -50 -34 -9 8 8 36 24 40 29 8 31 7 26 -6z m-564 -18 c0 -5 -4 -9 -10 -9
-5 0 -10 7 -10 16 0 8 5 12 10 9 6 -3 10 -10 10 -16z m145 10 c4 -6 5 -12 2
-15 -7 -7 -37 7 -37 17 0 13 27 11 35 -2z m285 -9 c0 -5 -5 -10 -11 -10 -5 0
-7 5 -4 10 3 6 8 10 11 10 2 0 4 -4 4 -10z m-360 -15 c7 -8 19 -15 26 -15 8 0
14 -5 14 -11 0 -6 -7 -8 -16 -5 -9 4 -22 2 -29 -4 -15 -12 -51 23 -40 39 9 16
30 13 45 -4z m260 -12 c11 3 20 1 20 -5 0 -6 7 -8 15 -4 8 3 15 1 15 -4 0 -6
7 -10 16 -10 8 0 12 -5 9 -10 -4 -7 -13 -6 -27 1 -11 6 -29 8 -41 5 -12 -3
-27 0 -34 6 -10 8 -13 6 -13 -11 0 -21 2 -22 80 -26 50 -3 59 -13 56 -66 -1
-46 0 -49 23 -49 19 0 22 3 13 12 -7 7 -12 21 -11 33 0 18 2 17 12 -5 6 -14
16 -28 22 -32 16 -12 107 -10 100 2 -4 6 2 7 17 1 32 -12 26 -23 -21 -40 -46
-17 -53 -31 -16 -31 14 0 25 5 25 11 0 7 20 9 63 6 34 -4 70 -6 80 -6 12 -1
17 -9 17 -30 0 -17 5 -33 11 -36 14 -10 -20 -34 -48 -35 -25 0 -30 -19 -11
-38 21 -21 -1 -26 -37 -6 -27 14 -37 16 -46 7 -10 -10 -9 -14 4 -19 23 -9 21
-24 -3 -24 -11 0 -20 -6 -20 -12 0 -8 -7 -5 -15 6 -8 11 -18 16 -22 11 -5 -4
-2 -10 5 -12 15 -6 16 -33 2 -33 -6 0 -13 6 -16 14 -3 8 -12 12 -20 9 -7 -3
-46 12 -86 32 -86 45 -94 49 -133 66 -47 21 -57 30 -45 44 12 14 3 45 -12 45
-6 0 -8 11 -4 24 7 27 -14 41 -47 30 -27 -9 -18 18 11 31 13 6 22 19 22 32 0
17 6 23 21 23 11 0 17 5 14 10 -9 15 -45 12 -45 -4 0 -24 -18 -28 -45 -10 -20
13 -23 19 -14 31 13 15 14 14 -21 31 -24 12 -24 12 8 7 17 -2 32 0 32 5 0 6
-7 10 -16 10 -14 0 -14 3 -4 15 7 9 16 12 19 7 3 -5 16 -12 28 -16 16 -5 25
-2 34 13 12 18 15 18 36 4 13 -8 32 -13 43 -10z m170 7 c0 -5 -5 -10 -11 -10
-7 0 -5 -11 5 -27 l17 -28 -20 23 c-10 12 -24 22 -30 22 -8 0 -8 5 1 15 15 16
38 20 38 5z m-5292 -37 c-2 -12 -14 -17 -50 -17 -78 -1 -53 30 25 33 22 1 28
-3 25 -16z m-269 -4 c23 -8 39 -8 55 -1 13 6 29 6 37 2 7 -5 18 -5 25 1 8 7
14 6 19 -1 12 -19 -7 -32 -39 -26 -18 4 -35 4 -39 0 -8 -8 -267 -17 -267 -9 0
4 6 13 14 20 22 23 144 32 195 14z m6111 1 c0 -5 -4 -10 -10 -10 -5 0 -10 5
-10 10 0 6 5 10 10 10 6 0 10 -4 10 -10z m-6620 -10 c0 -5 -2 -10 -4 -10 -3 0
-8 5 -11 10 -3 6 -1 10 4 10 6 0 11 -4 11 -10z m57 4 c-3 -3 -12 -4 -19 -1 -8
3 -5 6 6 6 11 1 17 -2 13 -5z m183 -4 c0 -5 10 -10 22 -10 12 0 19 -3 15 -6
-8 -9 -67 6 -67 17 0 5 7 9 15 9 8 0 15 -4 15 -10z m5437 -32 c-3 -8 -6 -5 -6
6 -1 11 2 17 5 13 3 -3 4 -12 1 -19z m483 13 c0 -12 -29 -23 -41 -15 -18 10
-9 24 16 24 14 0 25 -4 25 -9z m59 -39 c-3 -7 -11 -5 -23 3 -10 8 -15 19 -11
25 9 14 40 -12 34 -28z m-479 0 c0 -2 -10 -12 -22 -22 -28 -23 -20 -34 16 -21
21 9 26 8 26 -5 0 -9 -9 -18 -20 -21 -11 -3 -20 -11 -20 -18 0 -20 -51 -24
-87 -7 -18 9 -33 19 -33 24 0 4 -7 8 -17 8 -9 0 -14 3 -11 6 4 3 31 -2 62 -12
40 -13 59 -15 67 -7 8 8 -2 18 -32 34 -62 35 -60 46 11 46 33 0 60 -2 60 -5z
m390 -42 c12 -8 11 -10 -7 -10 -12 0 -25 5 -28 10 -8 13 15 13 35 0z m-335
-71 c4 -6 -3 -13 -15 -16 -27 -7 -7 -23 30 -23 19 0 21 -3 12 -12 -9 -9 -23
-7 -61 12 -42 22 -46 26 -32 37 20 15 58 17 66 2z m-3477 -7 c9 -5 37 -18 62
-29 25 -12 70 -32 100 -46 30 -14 135 -64 233 -111 99 -47 181 -86 183 -86 4
0 215 -101 504 -242 96 -47 213 -104 260 -127 100 -48 215 -107 250 -127 26
-16 219 -110 282 -138 20 -9 40 -21 43 -26 3 -6 13 -10 21 -10 9 0 35 -13 59
-30 24 -16 49 -30 55 -30 7 0 24 -7 38 -15 26 -14 50 -25 257 -118 172 -77
378 -184 367 -191 -5 -3 -26 1 -46 9 -19 8 -41 15 -48 14 -10 0 -10 -2 0 -6
18 -7 -29 -42 -48 -35 -12 4 -12 1 3 -15 24 -27 21 -43 -7 -43 -14 0 -28 -4
-31 -10 -3 -5 1 -10 9 -10 9 0 16 -4 16 -10 0 -5 -7 -10 -15 -10 -17 0 -21
-35 -5 -45 19 -12 10 -27 -14 -23 -17 4 -23 1 -19 -9 6 -17 -13 -17 -21 0 -4
6 -4 2 -2 -10 2 -12 -1 -24 -8 -28 -6 -3 4 -4 22 -2 47 5 39 -10 -10 -18 -36
-6 -40 -9 -25 -20 9 -7 17 -18 16 -26 0 -10 -2 -10 -6 -2 -2 7 -20 15 -39 19
-19 3 -37 10 -40 15 -2 5 -43 27 -90 49 -61 29 -84 45 -80 55 4 11 -1 13 -22
9 -20 -4 -33 0 -46 15 -19 21 -19 21 7 21 15 0 27 3 27 8 0 4 -27 7 -59 6 -45
0 -58 3 -54 13 5 13 -10 17 -54 14 -11 -1 -24 2 -27 7 -3 5 -53 33 -111 62
-94 47 -125 70 -95 70 6 0 10 7 10 15 0 8 -7 15 -15 15 -9 0 -12 -6 -9 -15 7
-18 -18 -20 -47 -4 -13 7 -18 16 -14 28 4 13 -1 20 -15 24 -11 3 -20 0 -20 -5
0 -7 -5 -6 -14 1 -9 8 -16 8 -20 2 -9 -14 -269 116 -263 132 5 14 57 10 73 -6
4 -4 14 -7 22 -7 12 0 12 3 2 15 -7 8 -18 15 -24 15 -6 0 -24 7 -40 15 -22 12
-32 12 -42 4 -10 -8 -14 -8 -14 0 0 6 -7 11 -15 11 -18 0 -19 12 -3 28 9 9 7
12 -10 12 -30 0 -28 -25 4 -55 25 -23 25 -23 2 -18 -13 4 -34 17 -47 30 -13
12 -29 23 -36 23 -7 0 -16 7 -19 16 -4 11 -13 14 -29 10 -14 -3 -32 1 -43 9
-11 8 -14 15 -6 15 6 0 21 9 32 20 20 20 20 20 1 20 -11 0 -23 5 -26 10 -3 6
-15 10 -26 10 -10 0 -19 -4 -19 -10 0 -5 7 -10 15 -10 19 0 20 -29 2 -36 -16
-6 -68 12 -66 23 4 26 -4 33 -38 33 -38 1 -73 18 -73 38 0 5 -9 8 -20 5 -18
-5 -270 110 -270 124 0 3 11 3 25 1 14 -3 28 -1 31 3 3 5 1 9 -5 9 -6 0 -8 7
-5 15 5 13 3 13 -22 0 -36 -18 -58 -19 -92 -2 -15 8 -71 35 -124 62 -54 26
-98 51 -98 56 0 5 -9 9 -19 9 -11 0 -26 7 -34 15 -8 8 -17 11 -21 8 -3 -3 -11
-2 -18 4 -7 5 -57 27 -110 48 -54 21 -98 42 -98 46 0 4 -12 10 -27 14 -26 6
-26 8 -10 19 21 16 22 26 2 26 -17 0 -20 25 -5 35 6 3 13 -1 16 -9 7 -18 54
-22 54 -6 0 6 -20 19 -44 30 -24 10 -47 23 -51 29 -3 6 -11 8 -17 5 -5 -4 -23
3 -39 15 -16 12 -34 19 -39 16 -6 -3 -10 -2 -10 4 0 6 -10 16 -22 22 -18 10
-24 8 -34 -6 -12 -16 -10 -20 12 -32 15 -7 37 -13 50 -13 12 0 26 -4 29 -10 3
-6 -4 -10 -17 -10 -13 0 -29 -5 -36 -12 -17 -17 -66 7 -58 28 4 9 1 22 -5 30
-20 24 -6 58 31 76 19 9 31 17 25 18 -5 0 -26 15 -45 32 -19 16 -28 28 -20 25
8 -2 29 10 46 29 30 32 35 34 110 36 69 2 75 3 46 12 -22 6 -31 14 -28 23 3 8
-4 17 -17 23 -12 5 -16 9 -9 9 7 1 20 -3 30 -7z m-2325 -17 c1 -5 -6 -11 -15
-13 -11 -2 -18 3 -18 13 0 17 30 18 33 0z m2084 -71 c-3 -3 -12 -4 -19 -1 -8
3 -5 6 6 6 11 1 17 -2 13 -5z m-47 -30 c0 -14 -3 -14 -15 -4 -8 7 -15 14 -15
16 0 2 7 4 15 4 8 0 15 -7 15 -16z m64 -51 c-10 -7 -23 -13 -30 -13 -16 0 -26
28 -19 52 6 18 8 17 37 -3 29 -21 30 -23 12 -36z m66 10 c0 -10 -42 -53 -52
-53 -14 0 -9 19 12 40 20 20 40 26 40 13z m-130 -23 c0 -5 -7 -10 -16 -10 -8
0 -12 5 -9 10 3 6 10 10 16 10 5 0 9 -4 9 -10z m-1546 -86 c26 -10 18 -21 -19
-28 -45 -9 -65 2 -40 21 21 14 35 16 59 7z m6476 -3 c0 -5 8 -12 18 -14 11 -3
7 -5 -10 -6 -32 -1 -58 8 -58 20 0 5 11 9 25 9 14 0 25 -4 25 -9z m-6570 -16
c-5 -11 -26 -13 -170 -19 -52 -3 -120 -9 -150 -15 -77 -15 -72 -14 -207 -13
-68 1 -123 6 -123 11 0 5 16 15 36 21 28 10 46 10 75 1 29 -9 44 -9 60 -1 11
6 55 11 97 10 98 -2 221 6 230 14 10 11 158 2 152 -9z m1939 -66 c-15 -9 -32
-2 -24 11 3 5 13 6 21 3 12 -4 13 -8 3 -14z m-54 -10 c10 -16 -3 -23 -18 -11
-8 7 -16 9 -19 6 -3 -3 -9 -1 -13 5 -4 7 4 11 19 11 14 0 28 -5 31 -11z m4327
-149 c51 -16 139 -38 195 -49 112 -22 193 -52 193 -73 0 -7 -5 -31 -11 -53
-14 -54 -26 -101 -39 -158 -10 -39 -15 -47 -28 -42 -10 4 -57 18 -107 31 -116
32 -228 72 -335 118 -47 21 -122 53 -167 73 -46 20 -83 41 -83 47 0 17 117 98
169 117 67 25 109 23 213 -11z m-6419 -137 c-7 -2 -19 -2 -25 0 -7 3 -2 5 12
5 14 0 19 -2 13 -5z m6064 -292 c87 -33 208 -82 268 -109 61 -27 135 -57 165
-67 134 -44 159 -69 134 -137 -9 -23 -17 -52 -19 -63 -5 -32 -22 -80 -36 -106
-8 -13 -14 -25 -15 -27 -1 -1 -55 21 -120 49 -65 29 -141 62 -169 73 -27 12
-78 37 -113 54 -78 40 -241 95 -347 116 -98 20 -145 35 -145 46 0 4 7 14 17
21 9 8 45 58 80 111 63 96 65 98 103 98 22 0 104 -25 197 -59z m-1170 -399 c7
-4 11 -18 10 -30 -1 -18 -7 -22 -32 -22 -28 1 -29 1 -11 15 16 12 17 17 6 30
-10 12 -10 15 1 15 8 0 19 -4 26 -8z m1740 -24 c-3 -8 -6 -5 -6 6 -1 11 2 17
5 13 3 -3 4 -12 1 -19z m-1597 -53 c36 -19 77 -40 93 -46 15 -6 27 -15 27 -20
0 -5 8 -9 19 -9 10 0 24 -6 30 -13 8 -11 3 -16 -26 -25 -23 -7 -42 -8 -54 -2
-10 6 -20 6 -23 1 -3 -5 1 -11 9 -15 9 -3 15 -18 15 -36 0 -16 5 -30 11 -30 7
0 20 -10 31 -22 14 -16 16 -24 7 -32 -8 -8 -13 -7 -16 2 -8 20 -26 14 -20 -8
6 -23 -7 -35 -25 -23 -7 4 -21 6 -32 4 -10 -1 -22 3 -27 10 -6 10 -11 10 -24
-1 -13 -10 -15 -23 -11 -50 3 -21 2 -30 -3 -21 -6 9 -18 11 -35 7 -28 -7 -34
2 -14 22 7 7 8 12 4 12 -5 0 -3 6 3 14 10 12 7 18 -13 31 -14 10 -26 24 -26
31 0 12 5 12 34 0 30 -13 35 -13 40 1 10 24 7 31 -14 38 -11 3 -20 13 -20 21
0 9 -8 14 -17 13 -10 -1 -26 1 -36 6 -17 7 -17 8 0 21 14 10 16 17 7 31 -6 10
-18 18 -27 18 -9 0 -19 4 -24 9 -4 5 7 6 27 2 32 -6 33 -5 15 9 -30 22 0 39
32 18 19 -12 26 -13 38 -3 13 11 22 9 50 -6 19 -10 37 -15 41 -12 13 14 -57
39 -88 33 -25 -6 -30 -4 -25 8 4 12 0 15 -18 14 -13 -1 -23 3 -22 8 1 6 8 9
17 8 9 -2 10 0 3 3 -20 9 -15 26 5 20 10 -3 47 -22 82 -41z m-220 19 c0 -2
-11 -4 -25 -4 -14 0 -25 4 -25 9 0 4 11 6 25 3 14 -2 25 -6 25 -8z m861 -28
c184 -47 366 -114 377 -138 2 -5 12 -8 22 -8 10 0 28 -8 41 -18 l22 -19 -46
-6 c-26 -4 -55 -3 -64 1 -14 5 -9 8 17 12 l35 5 -32 23 c-18 13 -48 24 -68 26
-20 2 -38 6 -42 10 -3 3 -16 6 -27 6 -17 0 -18 -2 -6 -10 12 -8 12 -10 -2 -15
-9 -4 -15 -12 -12 -20 3 -7 -2 -15 -10 -18 -24 -9 -19 -27 7 -27 20 0 23 -4
19 -30 -3 -18 0 -30 7 -30 6 0 11 11 11 25 0 14 4 25 9 25 11 0 23 -29 16 -40
-3 -5 0 -19 6 -33 8 -18 17 -23 37 -20 26 3 27 3 5 -8 -30 -16 -29 -23 3 -38
31 -14 28 -23 -4 -14 -12 3 -25 16 -28 29 -3 13 -12 24 -20 24 -19 0 -18 -17
1 -28 27 -14 12 -56 -21 -62 -24 -4 -29 -10 -30 -35 0 -17 4 -33 9 -36 5 -4 7
-11 3 -17 -7 -12 -44 -5 -66 13 -8 6 -87 35 -175 64 -130 43 -177 54 -252 58
-51 3 -93 10 -93 15 0 5 7 25 16 46 8 20 22 57 31 82 23 68 112 250 122 250 5
0 87 -20 182 -44z m949 19 c0 -8 -2 -15 -4 -15 -2 0 -6 7 -10 15 -3 8 -1 15 4
15 6 0 10 -7 10 -15z m-1870 -14 c0 -5 -7 -12 -16 -15 -24 -9 -28 -7 -14 9 14
17 30 20 30 6z m24 -76 c-4 -8 -8 -15 -10 -15 -2 0 -4 7 -4 15 0 8 4 15 10 15
5 0 7 -7 4 -15z m41 -75 c3 -5 1 -10 -4 -10 -6 0 -11 5 -11 10 0 6 2 10 4 10
3 0 8 -4 11 -10z m365 -20 c0 -5 -2 -10 -4 -10 -3 0 -8 5 -11 10 -3 6 -1 10 4
10 6 0 11 -4 11 -10z m-270 -20 c0 -5 -6 -10 -14 -10 -8 0 -18 5 -21 10 -3 6
3 10 14 10 12 0 21 -4 21 -10z m1060 0 c0 -5 -7 -10 -15 -10 -8 0 -15 5 -15
10 0 6 7 10 15 10 8 0 15 -4 15 -10z m200 -10 c8 -5 12 -12 9 -15 -8 -8 -39 5
-39 16 0 11 11 11 30 -1z m-6150 -20 c0 -5 -5 -10 -11 -10 -5 0 -7 5 -4 10 3
6 8 10 11 10 2 0 4 -4 4 -10z m4705 -38 c-6 -6 -65 29 -65 38 0 5 15 -1 34
-13 18 -12 32 -23 31 -25z m-4843 31 c-50 -2 -134 -2 -185 0 -50 1 -9 3 93 3
102 0 143 -2 92 -3z m6359 -10 c19 -9 28 -18 20 -21 -7 -2 -18 1 -24 7 -6 6
-19 11 -29 11 -10 0 -18 5 -18 10 0 14 12 13 51 -7z m-261 3 c0 -3 -4 -8 -10
-11 -5 -3 -10 -1 -10 4 0 6 5 11 10 11 6 0 10 -2 10 -4z m-1195 -26 c3 -5 1
-10 -4 -10 -6 0 -11 5 -11 10 0 6 2 10 4 10 3 0 8 -4 11 -10z m165 -10 c0 -15
-30 -32 -45 -26 -14 5 -13 8 2 24 17 18 43 19 43 2z m1365 0 c3 -5 -1 -10 -9
-10 -8 0 -18 5 -21 10 -3 6 1 10 9 10 8 0 18 -4 21 -10z m-1245 -30 c13 -9 13
-10 0 -10 -8 0 -22 5 -30 10 -13 9 -13 10 0 10 8 0 22 -5 30 -10z m-22 -72
c-7 -19 -31 -21 -53 -4 -19 15 -18 15 18 16 27 0 37 -4 35 -12z m1822 -763 c0
-3 -15 -11 -32 -19 -21 -9 -27 -15 -15 -15 27 -1 10 -21 -18 -21 -13 0 -36 5
-52 11 l-28 12 30 7 c17 4 41 12 55 18 27 11 60 15 60 7z m-6876 -675 c40 15
293 13 327 -3 9 -4 33 -5 55 -1 75 13 267 10 302 -5 30 -13 32 -17 32 -63 0
-53 -18 -72 -49 -50 -35 25 -70 35 -176 47 -311 37 -422 48 -445 46 -41 -3
-130 10 -130 20 0 5 11 9 25 9 14 0 26 6 26 13 1 6 3 4 6 -5 3 -13 9 -15 27
-8z m240 -479 c6 -5 34 -15 61 -24 88 -27 180 -64 286 -115 201 -96 305 -145
439 -204 74 -33 155 -68 179 -79 24 -11 65 -29 92 -39 131 -52 263 -130 219
-130 -5 0 -10 -7 -10 -15 0 -8 5 -15 10 -15 6 0 13 7 16 15 9 23 27 19 131
-36 208 -110 575 -289 590 -289 2 0 43 -18 91 -41 48 -22 121 -55 162 -72 76
-31 364 -176 410 -206 25 -17 60 -34 232 -114 111 -52 208 -112 208 -128 0 -6
-9 -24 -21 -40 l-21 -30 -197 5 c-108 3 -216 9 -241 14 -25 6 -81 13 -125 17
-239 19 -599 114 -893 236 -200 83 -664 340 -997 552 -230 147 -427 322 -520
462 -34 53 -41 69 -44 112 -1 6 -20 35 -43 63 -62 76 -97 124 -98 133 0 8 66
-17 84 -32z m5776 -511 c0 -5 -15 -10 -32 -9 -31 1 -32 1 -8 9 35 11 40 11 40
0z m217 4 c-3 -3 -12 -4 -19 -1 -8 3 -5 6 6 6 11 1 17 -2 13 -5z m-332 -44
c-3 -5 -16 -10 -28 -9 -20 1 -20 2 3 9 14 4 26 8 28 9 2 1 0 -3 -3 -9z m-95
-47 c-55 -58 -80 -77 -80 -64 0 6 17 27 38 46 20 19 42 39 47 45 6 5 15 9 21
10 6 0 -6 -17 -26 -37z m460 6 c0 -6 -4 -7 -10 -4 -5 3 -10 11 -10 16 0 6 5 7
10 4 6 -3 10 -11 10 -16z m-340 -9 c0 -5 -5 -10 -11 -10 -5 0 -7 5 -4 10 3 6
8 10 11 10 2 0 4 -4 4 -10z m140 -16 c0 -9 -32 -33 -44 -34 -5 0 -1 9 9 20 18
20 35 26 35 14z m64 -10 c5 -14 4 -15 -9 -4 -17 14 -19 20 -6 20 5 0 12 -7 15
-16z m-157 -46 c8 -9 10 -18 5 -22 -15 -9 -43 40 -35 61 7 17 8 17 11 -2 2
-11 11 -27 19 -37z m-27 -47 c-1 -13 -4 -12 -15 3 -8 11 -15 27 -15 35 1 13 4
12 15 -3 8 -11 15 -27 15 -35z m265 19 c-10 -11 -20 -18 -23 -15 -7 6 18 35
31 35 5 0 2 -9 -8 -20z m-455 -5 c0 -8 4 -15 8 -15 5 0 14 -12 21 -27 l12 -28
-25 30 c-14 17 -25 33 -26 37 0 4 -8 5 -17 2 -15 -5 -16 -4 -3 5 21 15 30 14
30 -4z m-14 -45 c8 0 19 -12 25 -26 12 -33 5 -43 -11 -15 -13 24 -30 28 -30 6
0 -8 -7 -15 -15 -15 -8 0 -15 5 -15 10 0 6 5 10 10 10 6 0 11 15 11 33 1 17 3
24 6 15 2 -10 11 -18 19 -18z m404 1 c0 -10 -70 -54 -76 -48 -3 2 13 16 33 30
44 30 43 30 43 18z m-345 -91 c3 -5 1 -10 -4 -10 -6 0 -11 5 -11 10 0 6 2 10
4 10 3 0 8 -4 11 -10z m670 -120 c4 -6 -7 -10 -24 -10 -17 0 -31 5 -31 10 0 6
11 10 24 10 14 0 28 -4 31 -10z m105 0 c0 -5 -13 -10 -30 -10 -16 0 -30 5 -30
10 0 6 14 10 30 10 17 0 30 -4 30 -10z m47 4 c-3 -3 -12 -4 -19 -1 -8 3 -5 6
6 6 11 1 17 -2 13 -5z m137 -6 c-15 -7 -28 -7 -40 1 -16 9 -12 10 21 10 35 0
37 -2 19 -11z m109 0 c-15 -7 -30 -7 -50 0 -26 10 -24 10 22 11 42 0 46 -2 28
-11z m-7160 -75 c-7 -2 -19 -2 -25 0 -7 3 -2 5 12 5 14 0 19 -2 13 -5z m87 3
c0 -2 -7 -6 -15 -10 -8 -3 -15 -1 -15 4 0 6 7 10 15 10 8 0 15 -2 15 -4z
m1380 -30 c8 -2 -34 -3 -95 -3 -85 0 -96 2 -50 6 56 6 110 4 145 -3z m-273 -2
c-3 -3 -12 -4 -19 -1 -8 3 -5 6 6 6 11 1 17 -2 13 -5z m5263 -93 c0 -12 -29
-23 -42 -15 -6 4 -5 10 3 15 18 11 39 11 39 0z m-140 -11 c0 -5 -4 -10 -10
-10 -5 0 -10 5 -10 10 0 6 5 10 10 10 6 0 10 -4 10 -10z m-449 -43 c-13 -13
-26 -3 -16 12 3 6 11 8 17 5 6 -4 6 -10 -1 -17z m134 -7 c3 -5 -1 -10 -9 -10
-9 0 -16 5 -16 10 0 6 4 10 9 10 6 0 13 -4 16 -10z m-4384 -243 c-1 -12 -15
-9 -19 4 -3 6 1 10 8 8 6 -3 11 -8 11 -12z m-143 -22 c-3 -3 -9 2 -12 12 -6
14 -5 15 5 6 7 -7 10 -15 7 -18z m187 15 c-3 -5 -10 -10 -16 -10 -5 0 -9 5 -9
10 0 6 7 10 16 10 8 0 12 -4 9 -10z m-508 -46 c-3 -3 -12 -4 -19 -1 -8 3 -5 6
6 6 11 1 17 -2 13 -5z m-94 -11 c-7 -2 -19 -2 -25 0 -7 3 -2 5 12 5 14 0 19
-2 13 -5z m560 -80 c-7 -2 -21 -2 -30 0 -10 3 -4 5 12 5 17 0 24 -2 18 -5z
m54 1 c-3 -3 -12 -4 -19 -1 -8 3 -5 6 6 6 11 1 17 -2 13 -5z m150 -70 c-3 -3
-12 -4 -19 -1 -8 3 -5 6 6 6 11 1 17 -2 13 -5z m178 -24 c3 -5 1 -10 -4 -10
-6 0 -11 5 -11 10 0 6 2 10 4 10 3 0 8 -4 11 -10z m102 -16 c-3 -3 -12 -4 -19
-1 -8 3 -5 6 6 6 11 1 17 -2 13 -5z m1838 -102 c-3 -3 -11 0 -18 7 -9 10 -8
11 6 5 10 -3 15 -9 12 -12z m71 -27 c22 -9 55 -24 74 -35 19 -10 69 -36 110
-58 151 -79 283 -153 290 -162 3 -4 38 -27 79 -52 76 -45 97 -68 65 -68 -19 0
-264 137 -479 268 -77 47 -153 93 -170 103 -37 23 -21 24 31 4z m3314 -185 c0
-5 -14 -10 -31 -10 -17 0 -28 4 -24 10 3 6 17 10 31 10 13 0 24 -4 24 -10z
m57 4 c-3 -3 -12 -4 -19 -1 -8 3 -5 6 6 6 11 1 17 -2 13 -5z m-1777 -14 c0 -5
-5 -10 -11 -10 -5 0 -7 5 -4 10 3 6 8 10 11 10 2 0 4 -4 4 -10z m193 -7 c-23
-2 -64 -2 -90 0 -26 2 -7 3 42 3 50 0 71 -1 48 -3z m-2669 -12 c115 -1 207 -3
204 -6 -3 -3 -171 -8 -373 -10 -230 -3 -365 -1 -359 5 9 9 166 17 269 13 28
-1 144 -2 259 -2z m601 -10 l40 -9 -40 0 c-22 0 -51 4 -65 8 l-25 8 25 0 c14
1 43 -3 65 -7z m-2075 -17 c0 -2 -66 -3 -147 -2 l-148 2 110 5 c105 6 185 3
185 -5z m363 9 c-7 -2 -21 -2 -30 0 -10 3 -4 5 12 5 17 0 24 -2 18 -5z m198
-3 c-18 -11 -129 -12 -135 -1 -3 4 29 8 71 9 44 0 71 -3 64 -8z m101 -1 c-21
-6 -39 -6 -50 0 -13 8 -5 10 33 10 48 -1 49 -1 17 -10z m135 4 c-20 -2 -52 -2
-70 0 -17 2 0 4 38 4 39 0 53 -2 32 -4z m111 0 c-10 -2 -28 -2 -40 0 -13 2 -5
4 17 4 22 1 32 -1 23 -4z m-2591 -9 c-3 -3 -12 -4 -19 -1 -8 3 -5 6 6 6 11 1
17 -2 13 -5z m126 -1 c-7 -2 -19 -2 -25 0 -7 3 -2 5 12 5 14 0 19 -2 13 -5z
m100 0 c-7 -2 -21 -2 -30 0 -10 3 -4 5 12 5 17 0 24 -2 18 -5z m127 3 c0 -2
-13 -6 -30 -8 -16 -3 -30 -1 -30 4 0 4 14 8 30 8 17 0 30 -2 30 -4z m88 -3
c-10 -2 -28 -2 -40 0 -13 2 -5 4 17 4 22 1 32 -1 23 -4z m105 0 c-13 -2 -35
-2 -50 0 -16 2 -5 4 22 4 28 0 40 -2 28 -4z m95 0 c-10 -2 -26 -2 -35 0 -10 3
-2 5 17 5 19 0 27 -2 18 -5z m195 0 c-7 -2 -21 -2 -30 0 -10 3 -4 5 12 5 17 0
24 -2 18 -5z m210 0 c-7 -2 -19 -2 -25 0 -7 3 -2 5 12 5 14 0 19 -2 13 -5z
m115 0 c-10 -2 -26 -2 -35 0 -10 3 -2 5 17 5 19 0 27 -2 18 -5z m75 0 c-7 -2
-19 -2 -25 0 -7 3 -2 5 12 5 14 0 19 -2 13 -5z m510 0 c-7 -2 -21 -2 -30 0
-10 3 -4 5 12 5 17 0 24 -2 18 -5z m110 0 c-7 -2 -21 -2 -30 0 -10 3 -4 5 12
5 17 0 24 -2 18 -5z"/>
<path d="M4477 8003 c-21 -20 1 -61 25 -47 8 5 6 11 -6 20 -10 7 -15 17 -11
23 7 12 2 15 -8 4z"/>
<path d="M1545 6950 c3 -5 10 -10 16 -10 5 0 9 5 9 10 0 6 -7 10 -16 10 -8 0
-12 -4 -9 -10z"/>
<path d="M2080 6830 c0 -5 5 -10 11 -10 5 0 7 5 4 10 -3 6 -8 10 -11 10 -2 0
-4 -4 -4 -10z"/>
<path d="M2195 6829 c-10 -15 3 -25 16 -12 7 7 7 13 1 17 -6 3 -14 1 -17 -5z"/>
<path d="M2230 6800 c0 -5 5 -10 10 -10 6 0 10 5 10 10 0 6 -4 10 -10 10 -5 0
-10 -4 -10 -10z"/>
<path d="M2160 6784 c0 -9 5 -14 12 -12 18 6 21 28 4 28 -9 0 -16 -7 -16 -16z"/>
<path d="M6080 6356 c0 -9 5 -16 10 -16 6 0 10 4 10 9 0 6 -4 13 -10 16 -5 3
-10 -1 -10 -9z"/>
<path d="M6270 6309 c0 -5 5 -7 10 -4 6 3 10 8 10 11 0 2 -4 4 -10 4 -5 0 -10
-5 -10 -11z"/>
<path d="M6360 6230 c0 -6 7 -24 15 -40 9 -17 12 -30 8 -30 -4 0 3 -7 16 -16
17 -12 20 -19 10 -24 -7 -5 -13 -19 -15 -32 -1 -12 -3 -26 -3 -30 -1 -5 -8 -8
-17 -8 -9 0 -14 -5 -12 -12 7 -21 25 -19 31 2 4 17 11 20 26 15 15 -4 21 -2
21 9 0 8 -10 18 -22 22 -21 7 -19 9 17 20 22 7 36 13 31 13 -5 1 -3 7 3 15 9
11 6 15 -14 20 -14 4 -25 11 -25 16 0 6 -7 10 -15 10 -18 0 -20 16 -4 26 8 4
3 12 -12 20 -29 16 -39 17 -39 4z"/>
<path d="M6346 6146 c21 -15 30 -14 19 3 -3 6 -14 11 -23 11 -13 0 -13 -2 4
-14z"/>
<path d="M6500 6113 c0 -4 9 -14 19 -20 15 -10 20 -9 25 2 3 8 1 15 -3 15 -5
0 -16 3 -25 6 -9 3 -16 2 -16 -3z"/>
<path d="M6481 6084 c0 -11 3 -14 6 -6 3 7 2 16 -1 19 -3 4 -6 -2 -5 -13z"/>
<path d="M2730 6110 c8 -5 20 -10 25 -10 6 0 3 5 -5 10 -8 5 -19 10 -25 10 -5
0 -3 -5 5 -10z"/>
<path d="M2708 6083 c7 -3 16 -2 19 1 4 3 -2 6 -13 5 -11 0 -14 -3 -6 -6z"/>
<path d="M2573 6058 c-18 -39 -6 -71 23 -64 13 4 33 1 43 -6 11 -7 23 -9 27
-5 11 10 -1 19 -38 26 -28 6 -34 12 -38 41 l-5 34 -12 -26z"/>
<path d="M2732 6073 c-6 -2 -10 -9 -7 -13 7 -11 35 -2 35 11 0 10 -8 10 -28 2z"/>
<path d="M2820 6029 c0 -5 5 -7 10 -4 6 3 10 8 10 11 0 2 -4 4 -10 4 -5 0 -10
-5 -10 -11z"/>
<path d="M2790 6010 c0 -5 5 -10 10 -10 6 0 10 5 10 10 0 6 -4 10 -10 10 -5 0
-10 -4 -10 -10z"/>
<path d="M2549 5966 c7 -9 17 -16 22 -16 5 0 18 -9 29 -20 11 -11 30 -20 42
-20 20 0 21 1 3 20 -10 11 -26 20 -36 20 -9 0 -19 4 -21 9 -1 4 -14 12 -28 16
-22 7 -23 6 -11 -9z"/>
<path d="M3205 5870 c-3 -5 1 -10 9 -10 8 0 18 5 21 10 3 6 -1 10 -9 10 -8 0
-18 -4 -21 -10z"/>
<path d="M3260 5830 c0 -5 5 -10 10 -10 6 0 10 5 10 10 0 6 -4 10 -10 10 -5 0
-10 -4 -10 -10z"/>
<path d="M2760 5806 c0 -9 5 -16 10 -16 6 0 10 4 10 9 0 6 -4 13 -10 16 -5 3
-10 -1 -10 -9z"/>
<path d="M3060 5765 c0 -8 5 -15 10 -15 6 0 10 7 10 15 0 8 -4 15 -10 15 -5 0
-10 -7 -10 -15z"/>
<path d="M3110 5770 c0 -5 5 -10 11 -10 5 0 7 5 4 10 -3 6 -8 10 -11 10 -2 0
-4 -4 -4 -10z"/>
<path d="M3375 5720 c-3 -5 1 -10 10 -10 9 0 13 5 10 10 -3 6 -8 10 -10 10 -2
0 -7 -4 -10 -10z"/>
<path d="M3125 5709 c-10 -15 1 -23 20 -15 9 3 13 10 10 16 -8 13 -22 13 -30
-1z"/>
<path d="M3280 5696 c0 -7 8 -20 17 -27 15 -12 16 -12 11 2 -4 9 -1 22 5 28 8
8 5 11 -11 11 -12 0 -22 -6 -22 -14z"/>
<path d="M3350 5688 c0 -9 5 -20 10 -23 13 -8 13 5 0 25 -8 13 -10 13 -10 -2z"/>
<path d="M2980 5650 c0 -5 5 -10 10 -10 6 0 10 5 10 10 0 6 -4 10 -10 10 -5 0
-10 -4 -10 -10z"/>
<path d="M3090 5650 c0 -5 5 -10 10 -10 6 0 10 -7 10 -15 0 -18 -36 -20 -43
-2 -4 7 -6 8 -6 1 -1 -7 10 -19 23 -28 23 -15 25 -14 31 4 4 13 15 20 33 20
27 1 26 1 -8 20 -40 22 -50 24 -50 10z"/>
<path d="M3670 5650 c0 -5 5 -10 11 -10 5 0 7 5 4 10 -3 6 -8 10 -11 10 -2 0
-4 -4 -4 -10z"/>
<path d="M3405 5470 c-3 -5 -1 -10 4 -10 6 0 11 5 11 10 0 6 -2 10 -4 10 -3 0
-8 -4 -11 -10z"/>
<path d="M4148 5413 c20 -8 13 -25 -8 -18 -11 3 -20 2 -20 -2 0 -16 24 -33 46
-33 22 0 22 1 8 30 -9 17 -21 30 -27 29 -8 0 -8 -2 1 -6z"/>
<path d="M4040 5390 c0 -5 7 -10 16 -10 8 0 12 5 9 10 -3 6 -10 10 -16 10 -5
0 -9 -4 -9 -10z"/>
<path d="M4080 5370 c0 -5 5 -10 11 -10 5 0 7 5 4 10 -3 6 -8 10 -11 10 -2 0
-4 -4 -4 -10z"/>
<path d="M4250 5363 c-13 -15 -12 -16 4 -10 10 4 22 7 27 7 6 0 7 5 4 10 -9
14 -18 12 -35 -7z"/>
<path d="M4000 5359 c0 -6 -9 -8 -20 -4 -11 4 -20 2 -20 -4 0 -16 36 -13 50 4
9 10 9 15 1 15 -6 0 -11 -5 -11 -11z"/>
<path d="M3650 5351 c0 -5 7 -12 16 -15 24 -9 28 -7 14 9 -14 17 -30 20 -30 6z"/>
<path d="M4129 5351 c7 -5 11 -13 8 -19 -4 -5 3 -18 14 -28 20 -18 20 -18 13
11 -7 30 -20 45 -39 45 -5 0 -4 -4 4 -9z"/>
<path d="M4275 5340 c3 -5 16 -10 28 -10 18 0 19 2 7 10 -20 13 -43 13 -35 0z"/>
<path d="M4180 5320 c0 -5 9 -10 20 -10 11 0 20 -4 20 -9 0 -5 11 -12 25 -15
14 -4 25 -10 25 -15 0 -5 11 -16 25 -25 36 -24 31 -5 -10 37 -21 22 -41 34
-50 31 -8 -4 -15 -1 -15 5 0 6 -9 11 -20 11 -11 0 -20 -4 -20 -10z"/>
<path d="M4316 5295 c4 -8 10 -12 15 -9 14 8 10 24 -6 24 -9 0 -12 -6 -9 -15z"/>
<path d="M4080 5291 c0 -5 10 -11 23 -15 38 -10 43 -7 13 9 -33 17 -36 18 -36
6z"/>
<path d="M3848 5243 c7 -3 16 -2 19 1 4 3 -2 6 -13 5 -11 0 -14 -3 -6 -6z"/>
<path d="M4160 5220 c-24 -21 -24 -20 23 -24 6 -1 11 5 10 12 -4 19 25 14 44
-8 10 -11 24 -20 33 -20 24 -1 63 -38 57 -54 -4 -11 -1 -13 11 -9 9 4 20 11
24 17 5 7 13 4 22 -9 21 -27 20 -35 -4 -35 -11 0 -20 -4 -20 -10 0 -13 3 -13
35 2 14 6 25 17 25 24 0 19 -53 70 -58 56 -5 -16 -32 -15 -32 1 0 13 -111 77
-133 77 -8 0 -24 -9 -37 -20z"/>
<path d="M4390 5212 c0 -12 19 -26 26 -19 2 2 -2 10 -11 17 -9 8 -15 8 -15 2z"/>
<path d="M4438 5203 c7 -3 16 -2 19 1 4 3 -2 6 -13 5 -11 0 -14 -3 -6 -6z"/>
<path d="M4640 5181 c0 -4 -12 -6 -27 -4 l-28 5 25 -21 c14 -11 27 -18 29 -15
7 7 12 44 6 44 -3 0 -5 -4 -5 -9z"/>
<path d="M4176 5165 c-11 -8 -17 -17 -14 -20 2 -3 13 4 23 15 21 23 18 25 -9
5z"/>
<path d="M4430 5170 c0 -12 42 -31 50 -23 6 5 -30 33 -42 33 -4 0 -8 -5 -8
-10z"/>
<path d="M4130 5160 c0 -5 5 -10 11 -10 5 0 7 5 4 10 -3 6 -8 10 -11 10 -2 0
-4 -4 -4 -10z"/>
<path d="M4233 5163 c-7 -3 -13 -11 -13 -18 0 -15 66 -32 77 -21 4 3 -1 6 -10
6 -9 0 -22 8 -29 18 -7 11 -19 17 -25 15z"/>
<path d="M4560 5142 c0 -5 7 -13 16 -16 10 -4 14 -1 12 6 -5 15 -28 23 -28 10z"/>
<path d="M4670 5130 c0 -5 5 -10 10 -10 6 0 10 5 10 10 0 6 -4 10 -10 10 -5 0
-10 -4 -10 -10z"/>
<path d="M4468 5113 c-22 -5 -23 -19 -3 -27 8 -3 14 -15 12 -28 -1 -17 4 -24
22 -26 l24 -4 -24 33 c-15 22 -19 34 -11 37 7 2 12 8 12 13 0 9 -4 10 -32 2z"/>
<path d="M4231 5063 c-1 -16 5 -23 17 -23 10 0 13 3 6 8 -6 4 -14 14 -17 22
-4 10 -6 8 -6 -7z"/>
<path d="M4320 5050 c0 -5 5 -10 11 -10 5 0 7 5 4 10 -3 6 -8 10 -11 10 -2 0
-4 -4 -4 -10z"/>
<path d="M4560 5035 c0 -8 -6 -15 -12 -15 -23 0 16 -20 40 -20 26 0 28 -7 5
-32 -15 -17 -15 -18 5 -18 13 0 22 6 22 15 0 8 5 15 10 15 17 0 11 37 -7 44
-10 3 -28 10 -40 16 -18 7 -23 6 -23 -5z"/>
<path d="M4793 5036 c1 -6 -8 -10 -20 -9 -30 4 -30 -13 0 -19 14 -3 33 3 45
13 l21 17 -24 4 c-14 3 -23 1 -22 -6z"/>
<path d="M4400 5015 c0 -8 7 -15 16 -15 14 0 14 3 4 15 -7 8 -14 15 -16 15 -2
0 -4 -7 -4 -15z"/>
<path d="M4650 5015 c0 -4 7 -20 16 -36 11 -22 12 -34 5 -43 -12 -14 -5 -26
16 -26 7 0 13 7 13 15 0 8 5 15 10 15 6 0 10 -11 10 -25 0 -14 4 -25 9 -25 20
0 5 56 -21 78 -16 13 -28 30 -28 38 0 8 -7 14 -15 14 -8 0 -15 -2 -15 -5z"/>
<path d="M4714 5009 c-3 -6 1 -18 10 -27 10 -11 16 -12 16 -4 0 7 -5 12 -11
12 -6 0 -9 7 -5 15 6 17 0 20 -10 4z"/>
<path d="M4994 5005 c11 -8 22 -12 25 -9 6 6 -19 24 -34 24 -5 -1 -1 -7 9 -15z"/>
<path d="M4830 4990 c0 -5 5 -10 10 -10 6 0 10 5 10 10 0 6 -4 10 -10 10 -5 0
-10 -4 -10 -10z"/>
<path d="M4775 4970 c-3 -5 -1 -10 4 -10 6 0 11 5 11 10 0 6 -2 10 -4 10 -3 0
-8 -4 -11 -10z"/>
<path d="M5080 4955 c-7 -8 -9 -15 -6 -15 4 0 14 7 22 15 9 8 11 15 6 15 -5 0
-15 -7 -22 -15z"/>
<path d="M4480 4949 c0 -5 5 -7 10 -4 6 3 10 8 10 11 0 2 -4 4 -10 4 -5 0 -10
-5 -10 -11z"/>
<path d="M4550 4925 c0 -8 9 -10 25 -7 14 2 25 6 25 7 0 1 -11 5 -25 7 -16 3
-25 1 -25 -7z"/>
<path d="M4506 4912 c-3 -5 1 -15 9 -22 16 -14 20 -3 6 19 -5 8 -11 9 -15 3z"/>
<path d="M4595 4901 c-7 -12 12 -24 25 -16 11 7 4 25 -10 25 -5 0 -11 -4 -15
-9z"/>
<path d="M4785 4880 c3 -5 8 -10 11 -10 2 0 4 5 4 10 0 6 -5 10 -11 10 -5 0
-7 -4 -4 -10z"/>
<path d="M4640 4866 c0 -10 9 -16 21 -16 24 0 21 23 -4 28 -10 2 -17 -3 -17
-12z"/>
<path d="M4980 4843 c0 -10 52 -34 59 -28 6 7 -31 34 -46 35 -7 0 -13 -3 -13
-7z"/>
<path d="M4717 4816 c-4 -9 3 -16 16 -20 33 -9 57 -7 57 4 0 6 -9 10 -19 10
-11 0 -23 5 -26 10 -9 14 -22 12 -28 -4z"/>
<path d="M4880 4740 c0 -5 7 -7 15 -4 8 4 15 8 15 10 0 2 -7 4 -15 4 -8 0 -15
-4 -15 -10z"/>
<path d="M5050 4650 c0 -5 5 -10 11 -10 5 0 7 5 4 10 -3 6 -8 10 -11 10 -2 0
-4 -4 -4 -10z"/>
<path d="M5451 4706 c-14 -16 -4 -26 25 -26 12 0 24 -4 26 -9 2 -6 18 -6 38
-2 30 7 32 9 15 16 -11 4 -36 13 -57 21 -30 11 -38 11 -47 0z"/>
<path d="M6356 4516 c10 -8 21 -12 24 -10 5 6 -21 24 -34 24 -6 0 -1 -6 10
-14z"/>
<path d="M6300 4380 c0 -5 5 -10 10 -10 6 0 10 5 10 10 0 6 -4 10 -10 10 -5 0
-10 -4 -10 -10z"/>
<path d="M1840 8579 c0 -5 5 -7 10 -4 6 3 10 8 10 11 0 2 -4 4 -10 4 -5 0 -10
-5 -10 -11z"/>
<path d="M1490 8561 c0 -5 7 -11 15 -15 9 -3 15 0 15 9 0 8 -7 15 -15 15 -8 0
-15 -4 -15 -9z"/>
<path d="M4519 8541 c-11 -13 -13 -23 -7 -35 5 -9 8 -24 6 -33 -2 -14 4 -18
29 -18 18 0 32 -4 30 -10 -1 -6 -23 -9 -49 -7 -38 3 -48 0 -48 -12 0 -9 6 -16
13 -16 7 0 12 -15 12 -40 1 -26 -3 -40 -12 -40 -7 0 -13 -4 -13 -10 0 -13 51
9 68 29 11 13 12 13 12 -1 0 -20 21 -29 88 -35 51 -4 52 -4 52 22 0 20 -7 28
-32 37 -28 10 -29 12 -14 24 10 7 24 10 31 7 10 -3 13 3 12 22 -2 20 -11 31
-41 44 -23 11 -34 21 -27 25 6 4 11 12 11 17 0 5 -10 1 -22 -11 -24 -22 -62
-30 -40 -8 21 21 13 30 -19 26 -28 -4 -30 -3 -24 19 6 27 5 27 -16 4z m126
-92 c4 -6 5 -12 2 -15 -7 -7 -37 7 -37 17 0 13 27 11 35 -2z m-34 -59 c18 0
18 -1 -1 -20 -23 -23 -49 -28 -31 -6 10 11 8 17 -6 26 -17 11 -17 11 0 6 10
-3 27 -6 38 -6z m59 -50 c12 -8 11 -10 -7 -10 -12 0 -25 5 -28 10 -8 13 15 13
35 0z"/>
<path d="M4320 8530 c0 -5 7 -10 15 -10 8 0 15 5 15 10 0 6 -7 10 -15 10 -8 0
-15 -4 -15 -10z"/>
<path d="M3800 8510 c0 -5 11 -10 25 -10 14 0 25 5 25 10 0 6 -11 10 -25 10
-14 0 -25 -4 -25 -10z"/>
<path d="M4365 8480 c3 -5 11 -10 16 -10 5 0 20 -9 31 -20 l22 -20 22 22 c24
26 16 35 -16 18 -16 -8 -25 -7 -42 5 -25 17 -42 20 -33 5z"/>
<path d="M3360 8472 c0 -13 75 -52 102 -52 10 0 18 -4 18 -9 0 -15 32 -23 44
-11 8 8 6 9 -6 5 -11 -4 -18 -2 -18 4 0 17 -61 51 -90 51 -15 0 -31 5 -38 12
-9 9 -12 9 -12 0z"/>
<path d="M2515 8420 c3 -5 15 -10 25 -10 10 0 22 5 25 10 4 6 -7 10 -25 10
-18 0 -29 -4 -25 -10z"/>
<path d="M2618 8423 c7 -3 16 -2 19 1 4 3 -2 6 -13 5 -11 0 -14 -3 -6 -6z"/>
<path d="M888 8413 c7 -3 16 -2 19 1 4 3 -2 6 -13 5 -11 0 -14 -3 -6 -6z"/>
<path d="M1348 8413 c7 -3 16 -2 19 1 4 3 -2 6 -13 5 -11 0 -14 -3 -6 -6z"/>
<path d="M2280 8416 c0 -2 9 -6 20 -9 11 -3 20 -1 20 4 0 5 -9 9 -20 9 -11 0
-20 -2 -20 -4z"/>
<path d="M2370 8408 c0 -9 15 -9 50 2 22 7 20 8 -12 7 -21 0 -38 -4 -38 -9z"/>
<path d="M1 8373 c0 -35 1 -36 10 -14 5 14 15 31 21 38 8 10 6 13 -11 13 -18
0 -21 -6 -20 -37z"/>
<path d="M141 8406 c11 -9 99 -15 99 -6 0 6 -23 10 -52 10 -28 0 -49 -2 -47
-4z"/>
<path d="M2208 8403 c7 -3 16 -2 19 1 4 3 -2 6 -13 5 -11 0 -14 -3 -6 -6z"/>
<path d="M328 8383 c7 -3 16 -2 19 1 4 3 -2 6 -13 5 -11 0 -14 -3 -6 -6z"/>
<path d="M385 8381 c-3 -5 -1 -12 5 -16 5 -3 10 1 10 9 0 18 -6 21 -15 7z"/>
<path d="M2332 8378 c-9 -3 -27 -4 -39 -1 -13 3 -23 1 -23 -4 0 -12 248 -4
270 8 18 9 -181 7 -208 -3z"/>
<path d="M2560 8380 c0 -5 4 -10 9 -10 6 0 13 5 16 10 3 6 -1 10 -9 10 -9 0
-16 -4 -16 -10z"/>
<path d="M1760 8370 c0 -5 5 -10 11 -10 5 0 7 5 4 10 -3 6 -8 10 -11 10 -2 0
-4 -4 -4 -10z"/>
<path d="M3586 8373 c-3 -3 -3 -10 0 -14 7 -12 34 -11 34 0 0 11 -26 22 -34
14z"/>
<path d="M4419 8361 c17 -14 28 -18 35 -11 12 12 8 15 -29 24 l-30 8 24 -21z"/>
<path d="M2480 8345 c0 -13 4 -14 20 -5 11 6 20 13 20 15 0 3 -9 5 -20 5 -11
0 -20 -7 -20 -15z"/>
<path d="M168 8333 c7 -3 16 -2 19 1 4 3 -2 6 -13 5 -11 0 -14 -3 -6 -6z"/>
<path d="M2028 8333 c7 -3 16 -2 19 1 4 3 -2 6 -13 5 -11 0 -14 -3 -6 -6z"/>
<path d="M2218 8333 c6 -2 18 -2 25 0 6 3 1 5 -13 5 -14 0 -19 -2 -12 -5z"/>
<path d="M2348 8333 c7 -3 16 -2 19 1 4 3 -2 6 -13 5 -11 0 -14 -3 -6 -6z"/>
<path d="M2240 8301 c0 -14 5 -18 20 -14 11 3 20 7 20 9 0 2 -9 8 -20 14 -17
9 -20 8 -20 -9z"/>
<path d="M3780 8310 c0 -5 5 -10 11 -10 6 0 9 -6 6 -14 -4 -10 0 -12 14 -9 22
6 26 23 4 23 -8 0 -15 5 -15 10 0 6 -4 10 -10 10 -5 0 -10 -4 -10 -10z"/>
<path d="M680 8300 c0 -5 10 -10 23 -10 18 0 19 2 7 10 -19 13 -30 13 -30 0z"/>
<path d="M775 8300 c3 -5 10 -10 16 -10 5 0 9 5 9 10 0 6 -7 10 -16 10 -8 0
-12 -4 -9 -10z"/>
<path d="M2370 8300 c0 -5 7 -10 15 -10 8 0 15 5 15 10 0 6 -7 10 -15 10 -8 0
-15 -4 -15 -10z"/>
<path d="M4391 8301 c-7 -5 -10 -14 -7 -20 4 -6 12 -9 17 -6 5 4 12 -1 15 -9
7 -19 54 -21 54 -3 0 8 -12 20 -27 28 -16 7 -30 15 -33 16 -3 1 -11 -1 -19 -6z"/>
<path d="M2100 8290 c-19 -6 -9 -8 35 -8 42 -1 54 2 40 8 -24 10 -42 10 -75 0z"/>
<path d="M6220 7661 c0 -11 5 -23 10 -26 6 -4 10 5 10 19 0 14 -4 26 -10 26
-5 0 -10 -9 -10 -19z"/>
<path d="M6186 7616 c3 -9 11 -16 16 -16 13 0 5 23 -10 28 -7 2 -10 -2 -6 -12z"/>
<path d="M6100 7606 c0 -2 7 -6 15 -10 8 -3 15 -1 15 4 0 6 -7 10 -15 10 -8 0
-15 -2 -15 -4z"/>
<path d="M1156 7471 c-3 -5 8 -14 24 -21 22 -9 37 -9 61 -1 41 14 102 15 94 1
-4 -6 -21 -8 -40 -4 -18 3 -35 1 -39 -4 -3 -5 15 -10 45 -11 35 0 51 4 55 14
4 9 19 15 38 15 17 0 37 4 45 9 9 6 -29 9 -100 7 -84 -1 -113 -5 -111 -14 3
-17 -25 -15 -32 3 -6 16 -32 20 -40 6z"/>
<path d="M1778 7473 c-10 -2 -18 -8 -18 -13 0 -10 38 -1 46 11 5 9 1 10 -28 2z"/>
<path d="M6315 7350 c3 -5 8 -10 11 -10 2 0 4 5 4 10 0 6 -5 10 -11 10 -5 0
-7 -4 -4 -10z"/>
<path d="M6567 7279 c7 -7 15 -10 18 -7 3 3 -2 9 -12 12 -14 6 -15 5 -6 -5z"/>
<path d="M6510 7260 c0 -5 5 -10 11 -10 5 0 7 5 4 10 -3 6 -8 10 -11 10 -2 0
-4 -4 -4 -10z"/>
<path d="M6335 7230 c3 -5 11 -10 16 -10 6 0 7 5 4 10 -3 6 -11 10 -16 10 -6
0 -7 -4 -4 -10z"/>
<path d="M6270 7199 c0 -5 9 -9 20 -9 11 0 20 2 20 4 0 2 -9 6 -20 9 -11 3
-20 1 -20 -4z"/>
<path d="M6213 7193 c-24 -9 -13 -23 17 -23 22 0 28 4 24 15 -6 15 -19 18 -41
8z"/>
<path d="M6338 7193 c7 -3 16 -2 19 1 4 3 -2 6 -13 5 -11 0 -14 -3 -6 -6z"/>
<path d="M6550 7170 c0 -5 4 -10 9 -10 6 0 13 5 16 10 3 6 -1 10 -9 10 -9 0
-16 -4 -16 -10z"/>
<path d="M6320 7160 c0 -5 5 -10 11 -10 5 0 7 5 4 10 -3 6 -8 10 -11 10 -2 0
-4 -4 -4 -10z"/>
<path d="M6265 7150 c3 -5 8 -10 11 -10 2 0 4 5 4 10 0 6 -5 10 -11 10 -5 0
-7 -4 -4 -10z"/>
<path d="M6320 7095 c-11 -13 -10 -14 4 -9 9 3 16 10 16 15 0 13 -6 11 -20 -6z"/>
<path d="M6700 7100 c0 -5 5 -10 11 -10 5 0 7 5 4 10 -3 6 -8 10 -11 10 -2 0
-4 -4 -4 -10z"/>
<path d="M6420 6990 c0 -5 5 -10 11 -10 5 0 7 5 4 10 -3 6 -8 10 -11 10 -2 0
-4 -4 -4 -10z"/>
<path d="M6360 6966 c0 -2 9 -6 20 -9 11 -3 20 -1 20 4 0 5 -9 9 -20 9 -11 0
-20 -2 -20 -4z"/>
<path d="M6770 6840 c0 -5 5 -10 10 -10 6 0 10 5 10 10 0 6 -4 10 -10 10 -5 0
-10 -4 -10 -10z"/>
<path d="M6778 6793 c7 -3 16 -2 19 1 4 3 -2 6 -13 5 -11 0 -14 -3 -6 -6z"/>
<path d="M6920 6770 c0 -5 4 -10 9 -10 6 0 13 5 16 10 3 6 -1 10 -9 10 -9 0
-16 -4 -16 -10z"/>
<path d="M6660 6571 c0 -5 7 -12 16 -15 24 -9 28 -7 14 9 -14 17 -30 20 -30 6z"/>
<path d="M6440 1169 c0 -30 21 -52 45 -47 13 2 10 10 -14 38 l-30 35 -1 -26z"/>
<path d="M6593 1141 c-6 -3 -10 -14 -10 -24 0 -14 6 -17 29 -12 32 7 39 -10 8
-18 -21 -5 -28 -27 -9 -27 6 0 8 -8 4 -19 -8 -26 21 -54 49 -45 25 8 22 5 30
31 5 15 1 25 -15 36 -11 9 -18 20 -15 25 16 26 -44 71 -71 53z"/>
<path d="M6440 1040 c0 -5 5 -10 10 -10 6 0 10 5 10 10 0 6 -4 10 -10 10 -5 0
-10 -4 -10 -10z"/>
<path d="M6420 1008 c0 -7 8 -22 17 -33 14 -18 15 -18 9 -2 -3 10 -6 25 -6 33
0 8 -4 14 -10 14 -5 0 -10 -6 -10 -12z"/>
<path d="M6075 919 c-12 -19 3 -22 27 -5 l22 16 -21 0 c-12 0 -25 -5 -28 -11z"/>
<path d="M7090 915 c0 -8 5 -15 10 -15 6 0 10 7 10 15 0 8 -4 15 -10 15 -5 0
-10 -7 -10 -15z"/>
<path d="M6020 890 c-18 -12 -2 -12 25 0 13 6 15 9 5 9 -8 0 -22 -4 -30 -9z"/>
<path d="M7080 869 c0 -13 14 -17 35 -9 17 6 16 7 -8 12 -15 3 -27 2 -27 -3z"/>
<path d="M7150 840 c-9 -17 -8 -20 13 -20 30 0 40 10 26 27 -16 18 -26 16 -39
-7z"/>
<path d="M7160 779 c0 -5 5 -7 10 -4 6 3 10 8 10 11 0 2 -4 4 -10 4 -5 0 -10
-5 -10 -11z"/>
<path d="M7130 760 c0 -5 18 -19 40 -30 31 -16 38 -17 34 -5 -4 8 -15 15 -25
15 -11 0 -22 7 -25 15 -7 17 -24 20 -24 5z"/>
<path d="M6886 691 c-3 -4 -20 -11 -38 -15 -24 -5 -29 -9 -20 -18 8 -8 20 -6
46 6 20 9 36 21 36 26 0 12 -17 13 -24 1z"/>
<path d="M6498 676 c-21 -15 -24 -35 -5 -37 45 -5 67 -4 67 3 0 4 11 10 25 14
25 6 55 -13 55 -35 0 -6 5 -11 10 -11 13 0 13 27 -1 35 -6 4 -8 13 -5 21 6 16
10 15 -69 20 -39 2 -66 -2 -77 -10z"/>
<path d="M6405 659 c-16 -10 -27 -19 -22 -20 4 -1 10 -2 15 -3 4 -1 23 -18 42
-37 38 -39 44 -64 20 -79 -9 -6 -10 -10 -3 -10 6 0 14 4 18 10 3 5 12 7 20 4
13 -5 13 -2 0 22 -8 16 -15 38 -15 50 0 11 -3 24 -7 28 -5 4 -8 17 -8 29 0 28
-23 31 -60 6z"/>
<path d="M6795 659 c-4 -6 -5 -12 -2 -15 2 -3 7 2 10 11 7 17 1 20 -8 4z"/>
<path d="M6540 591 c0 -5 5 -13 10 -16 6 -3 10 -2 10 4 0 5 -4 13 -10 16 -5 3
-10 2 -10 -4z"/>
<path d="M6480 500 c-8 -5 -12 -12 -9 -15 8 -8 39 5 39 16 0 11 -11 11 -30 -1z"/>
<path d="M6316 424 c-16 -7 -34 -14 -42 -14 -7 0 -18 -8 -23 -19 -8 -14 -5
-21 14 -31 21 -11 27 -11 43 3 10 10 26 17 35 17 11 0 17 8 17 24 0 33 -11 38
-44 20z"/>
<path d="M7090 280 c0 -5 7 -7 15 -4 8 4 15 8 15 10 0 2 -7 4 -15 4 -8 0 -15
-4 -15 -10z"/>
<path d="M7148 211 c-30 -17 -36 -31 -15 -31 12 0 52 39 45 44 -2 2 -15 -4
-30 -13z"/>
<path d="M7040 95 c0 -8 7 -15 15 -15 8 0 15 4 15 9 0 5 -7 11 -15 15 -9 3
-15 0 -15 -9z"/>
<path d="M6965 10 c-3 -5 1 -10 9 -10 9 0 16 5 16 10 0 6 -4 10 -9 10 -6 0
-13 -4 -16 -10z"/>
</g>
</svg>
